<?xml version="1.0" standalone="no"?>
<!DOCTYPE svg PUBLIC "-//W3C//DTD SVG 1.1//EN" "http://www.w3.org/Graphics/SVG/1.1/DTD/svg11.dtd" >
<svg xmlns="http://www.w3.org/2000/svg">
<metadata></metadata>
<defs>
<font id="gloria_hallelujahregular" horiz-adv-x="1142" >
<font-face units-per-em="2048" ascent="1638" descent="-410" />
<missing-glyph horiz-adv-x="1024" />
<glyph horiz-adv-x="0" />
<glyph unicode="&#xd;" horiz-adv-x="1024" />
<glyph unicode=" "  horiz-adv-x="1024" />
<glyph unicode="&#x09;" horiz-adv-x="1024" />
<glyph unicode="&#xa0;" horiz-adv-x="1024" />
<glyph unicode="!" horiz-adv-x="334" d="M48 1668q60 56 94 25t50 -117t19 -208t4 -248t4 -240t19 -180q0 -34 -4 -58t-16 -40t-36 -23t-64 -7q-6 0 -13 6t-14 39t-13 100t-12 189t-11 307t-7 455zM83 92q-3 24 11 47t36 40t46 22t40 -7q28 0 56 -18t36 -44t-14 -57t-96 -57q-60 8 -86 29t-29 45z" />
<glyph unicode="&#x22;" horiz-adv-x="808" d="M41 1430q-1 64 1 116t2 74q0 16 1 57t1 86t1 86t1 57q4 6 22 25t24 23q4 0 10 2q4 0 8 1t6 1t6 -1t8 -1q6 -2 12 -2q2 -2 9 -8t15 -14t14 -16t8 -10q-10 -108 13 -204t54 -181t58 -161t27 -146q0 -26 -7 -56t-23 -55t-40 -42t-60 -17q-52 0 -86 36t-52 93t-25 125t-8 132 zM428 1768q0 26 9 51t24 45t37 33t48 13q30 0 54 -49t44 -124t33 -162t23 -162t14 -126t4 -53q0 -96 -104 -96q-38 0 -67 41t-50 104t-34 140t-21 147t-11 124t-3 74z" />
<glyph unicode="#" horiz-adv-x="1562" d="M67 900q15 44 70 74t147 34t216 -42q8 12 14 47t13 82t14 98t13 94t11 72t11 31q14 8 42 12l56 8q34 4 72 4l30 -366h166q0 6 2 39t8 81t16 103t26 101t37 77t51 31q10 0 27 -1t33 -5t28 -15t12 -29v-334q24 -10 66 -18t92 -16t101 -17t93 -20t69 -26t27 -33 q-16 -46 -64 -67t-107 -33t-118 -22t-96 -30t-42 -58t45 -108q26 0 63 5t78 9t80 4t71 -9t52 -31t20 -62q0 -34 -44 -57t-101 -38t-112 -24t-79 -17l15 -95t6 -111t-28 -93t-87 -39q-46 14 -67 47t-33 71t-21 75t-32 61t-67 28t-124 -24v-92t-10 -99t-39 -80t-85 -33 q-20 0 -45 34t-53 81t-57 94t-55 75q-134 14 -206 31t-99 35t-16 37t41 35q72 38 254 78q0 22 -10 90t-34 182q-140 -42 -223 -34t-116 41t-18 77zM752 668q0 -20 11 -31t26 -16t32 -6t27 -1q18 0 43 3t48 10t40 21t17 38q0 50 -23 90t-73 40q-26 0 -53 -12t-48 -33t-34 -48 t-13 -55z" />
<glyph unicode="$" horiz-adv-x="1380" d="M74 196q18 22 59 34t98 17t112 3t98 -11t59 -21q22 142 21 239t-18 162t-48 106t-68 69t-77 51t-77 53t-66 75t-45 117q0 60 27 105t68 78t89 58t89 47t68 43t27 49v382q0 16 21 27t48 19t51 11t32 3q0 -110 10 -224t52 -218q20 -2 75 -8t116 -14t115 -15t76 -9 q6 -2 20 -9t29 -15t28 -15t17 -11q14 -40 18 -77t-34 -55t-134 -7t-278 69q-26 0 -37 -29t-15 -64t-3 -65t1 -32q0 -8 1 -25t2 -35t2 -35t1 -25q24 -4 83 -12t133 -24t154 -40t147 -59t110 -83t43 -110q0 -122 -56 -216t-141 -168t-186 -133t-193 -109v-70q0 -50 8 -98 t19 -95t19 -95t8 -98q0 -58 -20 -88t-84 -30q-26 0 -39 4t-22 14t-15 30t-16 52q-8 22 -22 76t-29 115t-28 114t-15 75l-428 94q-40 8 -47 41t-7 61q-24 32 -6 54zM318 1094q0 -68 41 -92t105 -24v216q-24 0 -50 -5t-47 -17t-35 -31t-14 -47zM694 766q0 -126 14 -245 t44 -241h22q52 0 115 28t118 73t92 100t37 109q0 76 -48 113t-116 51t-145 13t-133 -1z" />
<glyph unicode="%" horiz-adv-x="1714" d="M44 1138q0 70 16 147t52 140t96 104t148 41q44 0 84 -22t70 -57t48 -78t18 -83q0 -60 -40 -120t-98 -108t-125 -77t-123 -29q-62 0 -104 40t-42 102zM173 1325q9 -43 57 -115q68 -38 107 -37t57 30t17 80t-15 113q-80 14 -133 13t-76 -21t-14 -63zM550 192q20 52 44 175 t56 279t72 326t89 317t107 252t128 131q100 0 100 -102q-4 -42 -20 -131t-42 -205t-59 -251t-71 -271t-78 -264t-80 -229t-78 -167t-70 -78t-58 38t-40 180zM996 406q0 78 44 129t109 82t137 43t128 12q114 0 162 -48t48 -162q0 -170 -95 -271t-271 -101q-50 0 -97 31 t-84 78t-59 103t-22 104zM1215 421q9 -43 57 -115q68 -38 107 -37t57 30t17 80t-15 113q-80 12 -133 12t-76 -20t-14 -63z" />
<glyph unicode="&#x26;" horiz-adv-x="1668" d="M0 1310q0 106 68 198t167 161t210 109t199 40q132 0 177 -60t45 -188q0 -90 -32 -172t-70 -162t-70 -161t-32 -169q0 -54 43 -98t102 -75t120 -48t97 -17h24q2 8 19 62t49 115t75 109t95 46q16 -22 26 -38t16 -31t8 -32t2 -41q0 -34 -9 -66t-19 -64t-19 -64t-9 -68 q0 -4 1 -14t1 -22t1 -23t1 -13q64 -20 119 -36t95 -41t63 -66t23 -109q-42 -42 -92 -40t-109 26t-127 60t-144 62q-42 0 -86 -28t-92 -70t-99 -92t-105 -92t-112 -70t-120 -28q-70 0 -112 36t-65 90t-30 116t-7 114t8 103t18 101t18 100t8 102q0 6 -1 19t-1 29t-1 29t-1 19 q-48 36 -107 84t-109 105t-84 123t-34 140zM186 1269q0 -7 2 -13q0 -8 2 -16l238 -240q74 46 125 121t84 162t48 179t15 172q-76 0 -165 -22t-167 -65t-130 -109t-52 -156v-13zM472 352q0 -18 2 -39t9 -37t22 -27t41 -11q48 0 100 24t102 60t91 78t67 78q-2 2 -8 9t-14 15 t-16 14t-10 8q-16 10 -51 32t-73 45t-71 42t-45 25q-6 0 -10 2q-4 0 -7 1t-5 1q-46 0 -71 -37t-37 -89t-14 -106t-2 -88z" />
<glyph unicode="'" horiz-adv-x="334" d="M48 1476q0 6 5 19t13 29t15 29t13 19q4 0 10 2q4 0 8 1t6 1q42 0 74 -29t54 -71t33 -88t11 -78q0 -24 -7 -62t-22 -72t-38 -59t-57 -25q-36 0 -58 50t-36 115t-19 128t-5 91z" />
<glyph unicode="(" horiz-adv-x="762" d="M44 894q0 40 9 109t28 150t49 165t70 152t91 111t115 43q2 0 5 -1t7 -1q4 -2 10 -2q8 -2 24 -9t31 -14t27 -15t14 -12q0 -4 2 -8q0 -4 1 -7t1 -7q0 -76 -46 -152t-101 -156t-101 -169t-46 -191q0 -138 37 -243t101 -195t152 -173t190 -173q0 -4 2 -12t2 -12 q0 -44 -31 -60t-69 -16q-100 0 -181 45t-145 119t-111 168t-77 194t-45 197t-15 175z" />
<glyph unicode=")" horiz-adv-x="808" d="M0 1476q6 22 19 33t30 16t35 5h34q142 0 253 -74t188 -188t118 -249t41 -257q0 -48 -9 -123t-28 -160t-48 -171t-69 -155t-92 -113t-116 -44q-40 0 -58 32t-18 68q0 90 39 170t85 162t85 169t39 189q0 92 -26 163t-69 127t-99 102t-115 92t-116 95t-103 111z" />
<glyph unicode="*" horiz-adv-x="1190" d="M0 738q0 62 34 102t85 63t109 33t106 16q-10 16 -31 57t-44 87t-43 87t-26 57q0 4 -2 20t-2 26t1 26t6 31t15 26t30 11q6 0 19 -5t29 -13t29 -15t19 -13q12 -14 40 -54t58 -85t56 -87t36 -60q42 52 84 97t88 79t101 53t123 19q0 -56 -25 -96t-56 -77t-56 -76t-25 -95 q0 -8 2 -25t2 -21q36 -2 93 -2t112 -12t94 -41t39 -89q0 -52 -23 -72t-59 -23t-78 4t-80 8t-65 -10t-33 -51q4 -8 16 -38t29 -71t36 -90t34 -94t23 -81t6 -54q0 -4 -11 -17t-27 -28t-32 -29t-28 -20q-6 -2 -10 -4q-6 -2 -12 -2q-52 0 -83 45t-53 108t-39 129t-39 106 q-48 -76 -68 -154t-46 -142t-77 -104t-161 -40q0 78 17 151t42 144t52 142t49 143q0 6 2 12q4 12 4 18q0 4 -4 12q-2 4 -2 8q-6 6 -19 13t-28 15t-28 13t-19 5t-27 -7l-45 -15t-44 -15t-26 -9q-4 0 -24 -3t-30 -3q-32 0 -61 17t-29 59z" />
<glyph unicode="+" d="M-4 690q0 8 2 14q0 6 2 10q8 12 26 30t22 18h476q14 116 37 239t57 239h26h24q10 -4 26 -12t31 -15t26 -14t11 -9v-446q38 0 96 13t112 14t92 -20t38 -89q0 -38 -25 -58t-63 -30t-81 -13t-81 -11t-63 -24t-25 -48q0 -54 23 -100t51 -91t51 -91t23 -100q0 -100 -102 -100 q-46 0 -84 28t-68 74t-53 104t-40 117t-26 113t-13 92l-476 94q-8 0 -26 20t-22 30q-2 4 -2 10q-2 4 -2 12z" />
<glyph unicode="," horiz-adv-x="516" d="M64 -396q0 48 10 121t29 155t46 163t58 147t67 107t74 41q26 0 42 -11t23 -28t9 -38t2 -41q0 -46 -10 -110t-30 -133t-50 -136t-70 -119t-90 -85t-110 -33z" />
<glyph unicode="-" d="M170 722q0 8 2 26t2 22q36 0 97 5t134 11t152 12t150 9t131 2t94 -7q40 0 56 -9t16 -59q-66 -46 -166 -67t-205 -30t-203 -9t-160 -2q-62 -4 -81 25t-19 71z" />
<glyph unicode="." horiz-adv-x="504" d="M191 67q-3 33 24 65t95 48q100 0 100 -104q-26 -64 -63 -86t-70 -16t-58 33t-28 60z" />
<glyph unicode="/" horiz-adv-x="888" d="M92 176l14 56t20 85t19 84t13 55q16 62 47 172t76 236t104 253t131 224t157 148t183 25q-32 -124 -80 -235t-102 -216t-111 -208t-110 -210t-96 -223t-69 -246q-10 -64 -41 -74t-71 0q-30 8 -54 21t-30 53z" />
<glyph unicode="0" horiz-adv-x="1334" d="M44 838q0 92 16 194t49 200t84 186t120 156t157 107t196 39q152 0 269 -49t196 -138t119 -212t40 -269q0 -104 -21 -223t-64 -236t-107 -224t-149 -189t-192 -131t-233 -49q-110 0 -189 40t-133 107t-85 154t-47 180t-21 186t-5 171zM234 738q0 -90 9 -186t44 -177 t102 -133t183 -52q94 0 170 45t134 118t101 166t70 188t40 184t13 157q0 102 -15 190t-55 153t-112 102t-188 37q-98 0 -173 -38t-130 -100t-92 -144t-59 -170t-32 -176t-10 -164z" />
<glyph unicode="1" horiz-adv-x="524" d="M44 1430v85t11 113t36 98t75 42q30 0 49 -49t31 -124t18 -165t9 -170t5 -139t6 -73q8 -34 26 -105t41 -161t49 -188t50 -187t44 -160t30 -103q0 -4 2 -13t2 -13q0 -24 -16 -39t-39 -22t-48 -10t-45 -3q-8 0 -25 2t-21 2q-48 156 -100 329t-94 350t-69 356t-27 347z" />
<glyph unicode="2" horiz-adv-x="1476" d="M28 1096q0 118 41 230t115 200t177 141t229 53q52 0 86 -4t58 -20t40 -46t34 -80q0 -18 1 -64t2 -99t2 -101t1 -66q0 -118 -14 -231t-32 -224t-32 -223t-14 -228h40l524 238q2 0 10 1t19 1t21 1t16 1q20 0 42 -2t41 -9t32 -23t13 -42q0 -46 -29 -73t-68 -43t-80 -27 t-67 -23q-20 -12 -64 -34t-101 -50t-119 -59t-118 -60t-101 -51t-67 -32q-4 0 -14 -1t-22 -1t-22 -1t-14 -1q-46 0 -71 10t-36 31t-13 53t-2 78q0 122 23 241t52 239t52 243t23 251q0 16 -1 57t-1 86t-1 86t-1 57q-4 8 -22 26t-24 22h-26q-72 0 -121 -32t-84 -79t-64 -103 t-63 -103t-77 -79t-109 -32z" />
<glyph unicode="3" horiz-adv-x="1286" d="M0 1430v46q0 78 44 148t111 123t144 84t143 31q102 0 170 -35t111 -95t64 -138t28 -163t3 -172t-10 -163q92 -16 171 -45t138 -77t93 -118t34 -170q0 -54 -20 -125t-56 -148t-84 -151t-104 -132t-118 -94t-124 -36q-42 0 -59 30t-17 66q0 6 3 25t3 23q56 38 123 99 t125 134t97 153t39 160q0 4 -1 8t-1 8q-2 4 -2 8q-8 8 -28 29t-42 44t-43 43t-29 28q-4 0 -10 2q-4 0 -8 1t-8 1q-42 0 -98 -34t-109 -78t-94 -83t-55 -49q-4 -2 -10 -2q-6 -2 -14 -2t-12 2q-6 0 -10 2q-10 4 -28 23t-22 27v22v24q18 56 50 140t63 176t54 184t23 166 q0 54 -5 106t-22 94t-51 67t-92 25q-76 0 -135 -44t-100 -109t-59 -140t-10 -139h-96q-2 0 -8 22t-14 52t-15 62t-11 54z" />
<glyph unicode="4" horiz-adv-x="1380" d="M-14 596q0 86 32 206t88 250t132 258t165 230t187 165t196 63q22 0 59 -1t73 -7t62 -22t26 -46q0 -2 -4 -14q-2 -6 -2 -10q-4 -8 -16 -22t-27 -30t-30 -29t-21 -17q0 -16 -1 -56t-1 -85t-1 -86t-1 -57q0 -70 -1 -136t3 -130t14 -128t34 -130q6 0 19 -1t29 -1t29 -1t19 -1 q30 0 59 1t54 10t45 29t34 60q70 -28 84 -67t14 -95q0 -68 -29 -102t-77 -49t-109 -17t-123 -4q8 -22 22 -76t29 -115t28 -115t17 -74q0 -4 2 -24t2 -30q0 -60 -33 -77t-91 -17q-8 0 -35 2t-35 2q-4 26 -17 87t-28 129t-30 128t-23 84q-6 18 -19 47t-32 56t-42 46t-47 19 h-682zM230 808h488q0 70 -7 171t-15 200t-17 181t-11 116q-70 -50 -147 -127t-142 -168t-107 -188t-42 -185z" />
<glyph unicode="5" horiz-adv-x="1096" d="M44 1430q0 14 1 48t1 72t1 72t1 46q54 4 158 19t220 32t227 30t181 13q54 0 91 -21t37 -73t-22 -69t-82 -29q-22 -4 -71 -12t-110 -18t-128 -20t-128 -19t-110 -16t-73 -9q0 -6 -1 -19t-1 -29t-1 -29t-1 -19q0 -18 3 -57t10 -87t17 -99t23 -93t29 -69t36 -27q44 0 83 16 t78 36t81 36t92 16q94 0 156 -24t98 -72t51 -118t15 -162q0 -104 -35 -221t-101 -216t-161 -164t-217 -65q0 70 24 128t60 109t78 100t78 101t60 112t24 136q0 26 -7 55t-22 54t-39 41t-58 16q-2 0 -5 -1t-7 -1q-6 -2 -10 -2q-10 -6 -40 -20t-69 -34t-83 -42t-83 -41 t-68 -34t-39 -19q-4 -2 -10 -4t-14 -2q-50 0 -86 48t-60 122t-38 164t-22 175t-10 155t-2 104z" />
<glyph unicode="6" horiz-adv-x="1048" d="M44 406q0 44 3 151t14 243t32 281t56 266t85 199t122 78q2 0 6 -1t8 -1q6 -2 10 -2q8 -4 26 -22t22 -28v-22v-24q-4 -16 -15 -63t-25 -111t-31 -136t-32 -135t-26 -111t-15 -62q-2 -6 0 -18t4 -26t4 -25t2 -17q46 0 91 14t91 31t93 31t97 14q150 0 220 -85t70 -229 q0 -114 -52 -223t-138 -194t-195 -137t-223 -52q-54 0 -96 6t-77 27t-66 60t-61 107q0 12 -1 43t-1 65t-1 64t-1 44zM280 428q0 -24 5 -65t18 -80t37 -68t64 -29q54 0 117 40t117 99t91 126t37 121q0 42 -15 62t-39 29t-56 9h-66q-60 0 -115 -15t-99 -45t-70 -76t-26 -108z " />
<glyph unicode="7" horiz-adv-x="1334" d="M48 1304v126q0 14 39 23t98 15t129 8t131 3t103 1h48q32 0 92 2t132 0t147 -11t137 -31t101 -59t39 -95q0 -144 -21 -247t-51 -187t-62 -159t-54 -160t-27 -189t19 -248q-28 -58 -61 -79t-81 -21q-10 0 -27 2t-21 2q-2 12 -5 42t-3 86t6 144t23 216t46 301t75 401v24v26 q-12 6 -39 13t-57 15t-57 13t-39 5q-28 0 -87 2t-134 4t-158 4t-158 4t-135 3t-88 1z" />
<glyph unicode="8" horiz-adv-x="1286" d="M0 1262q0 114 62 189t160 121t220 67t242 28t225 6t169 -1q78 0 122 -44t44 -122q0 -60 -29 -131t-75 -144t-101 -144t-109 -134t-99 -112t-69 -79q38 -58 74 -114t62 -114t42 -119t16 -129q0 -150 -92 -220t-240 -70q-74 0 -144 28t-125 78t-88 117t-33 143q0 6 1 16 t1 21t1 19t1 10q4 10 25 52t45 91t45 91t27 52v24v24q-20 16 -55 48t-78 73t-87 89t-79 98t-58 99t-23 93zM234 1286q0 -54 33 -114t82 -109t109 -82t114 -33q8 0 25 2t21 2q16 12 59 49t90 85t87 101t52 99q-38 56 -70 86t-66 44t-72 16t-88 2h-106t-124 -13t-103 -44 t-43 -91zM472 356q0 -70 46 -118t126 -48q50 0 86 21t36 69t-18 89t-46 77t-62 67t-68 59q-54 -36 -77 -95t-23 -121z" />
<glyph unicode="9" horiz-adv-x="1096" d="M44 1358q0 112 28 212t87 176t151 120t218 44q122 0 208 -47t143 -125t91 -179t51 -207t22 -212t5 -192v-42q-4 -28 -15 -88t-25 -135t-30 -158t-30 -158t-25 -135t-17 -88q-34 -64 -88 -92t-122 -28q0 122 19 241t41 237t41 236t19 238q0 8 -1 32t-3 51t-3 51t-1 32 q-60 -66 -104 -105t-87 -58t-90 -25t-113 -6t-115 10t-91 33t-80 60t-80 91q0 12 -1 43t-1 66t-1 65t-1 42zM234 1380q0 -44 5 -87t22 -76t51 -54t94 -21q56 0 120 48t117 114t88 134t35 110q0 32 -27 63t-65 55t-79 39t-67 15q-84 0 -141 -25t-91 -70t-48 -107t-14 -138z " />
<glyph unicode=":" horiz-adv-x="618" d="M-4 834q0 36 27 67t65 54t80 37t70 14q64 0 82 -38t18 -96q0 -42 -18 -73t-48 -51t-70 -29t-84 -9q-8 0 -12 2q-6 0 -10 2q-8 2 -22 15t-29 28t-28 30t-17 21q-2 6 -2 12q-2 6 -2 14zM186 118q0 72 43 110t105 54t130 18t118 2q0 -62 -18 -117t-52 -97t-85 -67t-117 -25 q-70 0 -97 26t-27 96z" />
<glyph unicode=";" horiz-adv-x="428" d="M18 270q0 56 12 103t37 82t66 54t101 19h47t50 -6t39 -22t16 -48q0 -48 -43 -82t-102 -57t-122 -33t-101 -10zM144 -858q76 170 98 350t-4 364l96 96q44 -14 65 -57t29 -97t7 -111t-1 -97q0 -10 -3 -37t-3 -31q-4 -22 -16 -75t-27 -114t-30 -115t-21 -76q-6 -4 -19 -11 t-29 -15t-29 -14t-19 -8h-22h-26q-8 4 -25 23t-21 25z" />
<glyph unicode="&#x3c;" horiz-adv-x="952" d="M44 572q0 72 45 146t118 144t166 131t190 107t189 73t162 27q0 -64 -33 -117t-86 -100t-118 -90t-129 -86t-121 -89t-93 -100q-2 -6 -4 -10q-2 -6 -2 -12q0 -8 2 -14t4 -10q4 -4 21 -23t25 -25q12 -8 53 -33t95 -60t115 -73t115 -73t94 -61t54 -34q6 -4 24 -22t22 -24 q0 -6 2 -12q0 -4 1 -8t1 -6t-1 -5t-1 -7q-2 -6 -2 -10q-6 -10 -21 -27t-30 -32t-28 -26t-17 -11q-36 0 -110 28t-164 75t-185 107t-174 124t-129 126t-50 112z" />
<glyph unicode="=" horiz-adv-x="1190" d="M58 1162l46 46q184 10 352 18q72 4 148 8t150 8t139 7t117 7h28q44 0 58 -31t14 -63q0 -54 -19 -85t-81 -59q-18 0 -62 -1t-93 -1t-93 -1t-62 -1q-58 0 -153 -5t-193 4t-181 41t-115 108zM82 552q0 92 62 146t157 82t208 35t215 6t178 -7t98 -2q64 4 82 -25t18 -69 q0 -52 -30 -81t-75 -42t-96 -17t-91 -6q-26 -2 -83 -3t-129 -4t-151 -5t-151 -4t-129 -3t-83 -1z" />
<glyph unicode="&#x3e;" horiz-adv-x="1000" d="M36 1300q60 0 156 -19t203 -51t216 -77t196 -97t142 -109t55 -113q0 -4 -2 -12t-2 -14l-60 -72t-91 -110t-108 -129t-109 -128t-94 -109t-62 -70q-34 -38 -54 -65t-37 -45t-38 -27t-57 -9q-10 0 -27 1t-33 6t-28 15t-12 30q0 36 31 93t79 123t105 136t110 133t94 111 t57 70q0 4 3 12t3 12l-4 12q-2 4 -2 10q-4 10 -22 28t-26 22q-14 8 -54 33t-93 60t-114 73t-115 73t-94 60t-54 33q-34 22 -46 46t-12 64z" />
<glyph unicode="?" horiz-adv-x="808" d="M-14 1462q0 88 24 161t70 126t116 83t160 30q62 0 127 -29t117 -76t85 -108t33 -125q0 -80 -21 -145t-50 -122t-60 -110t-53 -111t-27 -124t17 -150q-4 -6 -17 -14t-28 -15t-29 -13t-22 -6q-48 0 -77 25t-45 62t-21 79t-5 76q0 80 32 150t69 137t69 136t32 151 q0 28 -16 53t-41 44t-56 30t-59 11q-44 0 -80 -22t-67 -52t-59 -63t-56 -55q-4 -4 -29 -9t-33 -5zM428 96q0 26 20 59t48 62t61 49t61 20q4 0 23 -19t27 -29q6 -6 13 -21t15 -30t13 -28t5 -15q0 -42 -11 -63t-29 -29t-42 -8h-50q-8 0 -33 -1t-52 2t-48 14t-21 37z" />
<glyph unicode="@" horiz-adv-x="1904" d="M44 776q0 210 79 399t215 331t321 225t397 83q140 0 282 -61t258 -164t189 -237t73 -280q0 -124 -42 -253t-117 -248t-175 -224t-217 -183t-244 -123t-255 -45q-156 0 -295 63t-243 170t-165 248t-61 299zM234 776q0 -130 48 -239t131 -187t194 -121t235 -43q76 0 145 23 t130 62t115 92t102 115q-28 28 -50 47t-42 30t-43 16t-53 5q-42 0 -82 -9t-79 -20t-80 -20t-85 -9q-46 0 -97 18t-96 50t-74 77t-29 99q0 86 45 164t114 136t154 93t163 35q90 0 140 -32t77 -80t43 -104t40 -104t65 -80t119 -32q62 0 100 37t57 92t25 119t6 118 q0 102 -63 192t-157 159t-204 109t-202 40q-164 0 -312 -71t-259 -189t-176 -271t-65 -317zM695 783q11 -41 47 -67t87 -30t100 26t88 100t51 194l-12 8q-148 -24 -229 -63t-112 -83t-20 -85z" />
<glyph unicode="A" horiz-adv-x="1524" d="M41 62q-3 36 -3 82q0 66 6 152q10 146 37 323t68 370t97 373t126 335t152 255q14 40 40 46t58 6q52 0 115 -68t130 -181t135 -260t131 -303t118 -312t96 -286t64 -225t23 -131t-17 -68t-59 -32q-26 0 -45 17t-33 41t-25 49t-19 41q-10 26 -37 94t-57 144t-57 143t-39 95 q-154 26 -311 50t-331 46h-24q-80 -344 -141 -544t-102 -285q-35 -72 -57 -72q-4 0 -8 2q-24 15 -31 103zM472 1168q0 -82 53 -120t129 -50q61 -10 126 -10q16 0 33 1q83 3 143 3q0 88 -29 191t-73 206t-95 199t-93 174q-24 -24 -52 -90t-55 -147t-50 -159t-33 -126 q0 -6 -2 -34t-2 -38z" />
<glyph unicode="B" horiz-adv-x="1334" d="M76 1658q26 136 97 215t164 108q61 19 128 19q34 0 70 -5q105 -15 199 -66t166 -132t100 -184q14 -52 14 -107.5t-14 -115.5q-28 -120 -132 -248q82 -28 150 -57t116 -71t75 -102t27 -150q0 -74 -27 -156t-75 -162t-111 -152t-136 -127t-150 -88t-151 -33q-48 0 -95 62 t-91 165t-86 236t-78 276t-65 285t-50 262t-33 207t-12 121zM326 1353q-1 -24 -1 -48q0 -36 2 -74q3 -63 14 -125t39 -106q110 20 191 76t131 130t72 159q17 67 17 130q0 17 -1 34q-6 79 -38 146t-90 104t-140 37t-188 -54q0 -18 -1 -62t-2 -93t-2 -93t-1 -62q0 -40 -2 -99z M472 696q0 -38 17 -100t45 -125t62 -115t70 -70q14 -7 30 -7q21 0 44 12q42 21 85 66t84 104t73 117t51 108t19 76q0 58 -16 95t-46 59t-71 31t-91 9q-54 0 -116 -18t-115 -51t-89 -82t-36 -109z" />
<glyph unicode="C" horiz-adv-x="1430" d="M44 762q0 76 21 165t59 179t91 175t120 151t145 105t164 39q72 0 134 -19t107 -57t70 -95t25 -133q-48 0 -78 25t-56 56t-56 56t-76 25q-70 0 -133 -36t-117 -96t-96 -135t-72 -152t-46 -150t-16 -127q0 -116 34 -217t99 -175t160 -117t217 -43q78 0 148 24t136 52 t130 52t128 24q10 0 26 -1t31 -6t26 -15t11 -30q0 -80 -61 -135t-146 -90t-176 -50t-149 -15q-168 0 -315 54t-255 154t-171 241t-63 317z" />
<glyph unicode="D" d="M48 1506q0 94 55 154t136 94t174 47t169 13q144 0 243 -57t160 -150t88 -215t27 -250q0 -84 -18 -198t-53 -236t-87 -241t-121 -213t-155 -152t-188 -58q-20 0 -48 55t-62 146t-71 210t-72 247t-67 256t-57 237t-39 192t-14 119zM234 1380q0 -72 10 -163t31 -188t53 -196 t74 -186t96 -157t120 -110q76 106 131 191t91 169t53 180t17 222q0 92 -12 178t-48 154t-103 109t-175 41q-90 0 -173 -27t-161 -73q0 -6 -1 -26t-1 -43t-1 -45t-1 -30z" />
<glyph unicode="E" horiz-adv-x="1476" d="M-4 1828q0 32 24 54t56 37t64 22t50 11h26h22q54 -6 136 -15t174 -19t186 -20t171 -19t129 -15t62 -6q18 -2 46 -8t56 -18t53 -29t35 -41q-18 -36 -31 -55t-28 -28t-32 -10t-41 -1q-94 0 -188 7l-188 14l-188 14t-190 7q0 -42 -10 -121t-15 -168q-2 -32 -2 -63 q0 -57 6 -114q9 -88 49 -148q78 46 163 48t171 2h96t112 -13t92 -44t38 -93q0 -44 -18 -67t-82 -23q-6 0 -27 7t-45 16t-44 16t-26 7q-2 0 -17 1t-35 1t-39 1t-29 1q-52 0 -99 -7t-83 -27t-57 -58t-21 -98q0 -20 4 -68t12 -107t22 -122t36 -115t50 -86t66 -34q6 0 24 2t22 2 q74 50 151 110t159 113t171 89t185 36v-108q0 -10 -43 -50t-113 -93t-157 -113t-174 -110t-166 -83t-131 -33q-76 0 -135 68t-105 180t-78 258t-55 302t-37 311t-23 286t-13 227t-6 134q-10 0 -31 6t-44 13t-43 15t-26 14q-2 4 -2 8q-2 4 -2 10z" />
<glyph unicode="F" d="M0 1548v22q86 44 163 65t154 29t156 8h171q18 0 61 -1t93 -1t93 -1t61 -1q24 -8 37 -30t20 -47t9 -50t2 -39h-734v-478h796q0 -74 -46 -118t-117 -68t-157 -32q-76 -7 -147 -7h-17q-78 1 -138 5t-80 4v-46q0 -94 45 -177t99 -161t99 -153t45 -153q0 -48 -20 -85t-72 -37 q-56 0 -110 58t-105 154t-97 222t-87 262t-73 271t-55 252t-36 205t-13 128z" />
<glyph unicode="G" horiz-adv-x="1570" d="M-4 790q0 110 32 226t89 225t136 206t175 169t206 114t228 42q52 0 133 -12t157 -38t131 -69t55 -105q0 -4 -1 -7t-1 -7q-2 -6 -2 -10q-4 -6 -22 -25t-26 -23q-4 -2 -10 -2q-6 -2 -14 -2t-12 2q-6 0 -10 2l-54 27t-91 46t-91 46t-52 25q-10 0 -18 2q-8 0 -14 1t-10 1 q-106 0 -201 -38t-175 -104t-145 -153t-110 -184t-69 -198t-24 -195q0 -126 40 -223t112 -163t170 -99t214 -33q68 0 165 18t187 58t153 103t63 155q0 38 -12 59t-32 31t-48 12t-60 2q-48 0 -84 -16t-70 -36t-69 -36t-81 -16q-58 0 -91 18t-33 82t45 102t108 59t132 27 t115 6q80 0 148 -12t118 -44t77 -89t27 -145q0 -138 -76 -239t-190 -166t-246 -97t-246 -32q-160 0 -294 56t-230 157t-149 239t-53 300z" />
<glyph unicode="H" horiz-adv-x="1476" d="M-4 1380q0 12 1 39t1 57t1 57t1 37q56 60 93 71q12 3 22 3q22 0 37 -16q22 -24 32 -75t14 -115t4 -135t2 -132t9 -108t25 -63h762q46 0 66 29t24 76q1 17 1 36q0 33 -4 71q-7 60 -12 123q-4 52 -4 104v20q1 61 19 108t59 76t117 29q30 -44 36 -94q4 -33 4 -68 q0 -17 -1 -35q-3 -53 -11 -105t-8 -102q0 -130 17 -261t36 -262t36 -261t17 -258q1 -21 1 -40q0 -105 -19 -155q-20 -54 -51 -54h-5q-34 5 -75 67t-75 167t-55 246q-18 118 -18 253q0 26 1 52h-802q16 -154 41 -289t40 -238q12 -81 12 -136q0 -15 -1 -28q-4 -61 -46 -65 q-64 0 -109 44t-77 119t-52 176t-33 214t-21 230t-15 226t-15 204t-22 161z" />
<glyph unicode="I" horiz-adv-x="1714" d="M28 1404q0 18 1 51t7 68t20 63t40 34h1222q-2 -70 -29 -108t-70 -58t-96 -26t-107 -12t-105 -17t-88 -39t-56 -78q-12 -33 -12 -81q0 -25 3 -55q0 -46 7 -123t22 -166t40 -179t61 -164t84 -120t112 -46q22 -2 51 -2t64 2q71 4 142 6q20 1 40 1q49 0 94 -4q63 -5 92 -27 q19 -14 19 -37q0 -13 -6 -28q-16 -43 -98 -117q-142 -52 -287 -71t-292 -21h-73l-221 4q-147 6 -291 6q-82 100 -98 153q-6 19 -6 34q0 27 18 41q28 22 89 23h18q54 0 114 -5q71 -6 142 -9h22q57 0 97 13q0 116 -29 254t-63 283t-65 288t-33 269h-496z" />
<glyph unicode="J" horiz-adv-x="1430" d="M-4 1548q0 6 2 12q0 4 2 10q6 6 19 15t29 16t29 13t19 6q42 2 127 7t194 10t235 12t251 12t240 8t205 3q0 -70 -26 -106t-65 -55t-85 -28t-85 -24t-65 -45t-26 -88q0 -114 23 -223t52 -217t52 -217t23 -221q0 -98 -44 -181t-116 -143t-162 -94t-180 -34q-34 0 -73 7 t-72 25t-54 46t-21 70q0 60 36 81t90 27t117 7t117 21t90 67t36 145q0 278 -31 466t-120 299t-248 151q-110 28 -265 28q-71 0 -150 -6q-8 2 -22 15t-29 28t-28 30t-17 21q-2 4 -2 10q-2 6 -2 14z" />
<glyph unicode="K" horiz-adv-x="1570" d="M42 1629v16q0 40 8 75q10 42 36 70t84 28q42 -58 54 -143t16 -180t10 -188t36 -165q4 -8 22 -25t26 -21q66 58 121 120t108 121t106 112t117 93t142 63t178 23q0 -52 -37 -105t-95 -108t-127 -112t-134 -115t-116 -117t-73 -119q38 -10 126 -44t200 -84t232 -108 t220 -115t164 -107t64 -80v-29t-4 -43t-15 -39t-35 -17q-94 4 -176 36t-160 79t-154 100t-156 100t-166 78t-186 35q-30 -47 -30 -91q0 -6 1 -13q5 -50 30 -100t61 -102t63 -109t35 -119q2 -14 2 -28q0 -50 -22 -104q-4 -6 -16 -14t-27 -16t-30 -13t-21 -5q-28 0 -63 56 t-74 151t-80 218t-79 256t-71 267t-58 251t-40 206t-15 133q0 42 -2 91z" />
<glyph unicode="L" horiz-adv-x="1380" d="M0 1458q0 44 30 58t66 14q6 0 25 -3t23 -3q8 -68 14 -165t15 -209t23 -232t38 -235t59 -218t87 -179q12 -20 22 -30t20 -15t23 -6t33 -1q90 0 174 31t166 69t167 69t177 31q20 0 51 1t58 -4t47 -22t20 -53q0 -34 -60 -73t-153 -78t-203 -76t-211 -66t-179 -46t-104 -17 q-80 0 -141 55t-106 147t-76 211t-51 247t-31 255t-16 236t-6 191t-1 116z" />
<glyph unicode="M" horiz-adv-x="1952" d="M44 952q0 26 1 87t1 129t1 128t1 84l12 48t21 63t34 55t51 24q74 0 139 -41t125 -106t114 -145t107 -159t104 -149t103 -112q56 24 87 90t51 151t36 178t45 170t77 127t132 50q100 0 182 -78t146 -198t110 -266t77 -282t46 -245t15 -155q0 -20 -2 -43t-11 -42t-29 -29 t-58 0q-10 2 -25 13t-30 26t-26 30t-13 25q-20 108 -44 242t-61 271t-92 265t-137 222q-64 -36 -101 -108t-62 -157t-45 -174t-53 -162t-84 -119t-137 -46q-60 0 -117 39t-110 102t-103 140t-98 151t-94 138t-92 102q-18 -68 -28 -120t-16 -101t-7 -100t-1 -113 q0 -94 16 -186t34 -183t34 -184t16 -185v-18q-4 -8 -17 -22t-28 -29t-30 -28t-21 -17q-4 -2 -10 -2q-6 -2 -14 -2q-4 0 -11 2t-11 2q-16 130 -33 245t-32 228t-25 229t-10 250z" />
<glyph unicode="N" horiz-adv-x="1524" d="M0 952q0 20 5 68t13 102t16 100t14 64q8 2 25 3t35 3t35 3t23 1q108 0 203 -42t182 -107t169 -145t165 -155t170 -137t185 -92q0 10 1 34t1 51t1 50t1 33q0 140 -18 274t-40 267t-40 268t-18 277q16 0 40 -1t48 -7t44 -18t26 -36q10 -162 41 -323t64 -322t59 -322 t26 -319q0 -28 -1 -62t-9 -64t-26 -50t-54 -20q-114 0 -212 53t-190 131t-180 171t-180 171t-191 131t-213 53q0 -124 18 -239t39 -228t39 -225t18 -228q0 -42 -30 -58t-66 -16q-28 0 -54 6t-40 46q-8 36 -23 102t-31 146t-32 168t-29 171t-21 153t-8 116z" />
<glyph unicode="O" horiz-adv-x="1430" d="M0 618q0 114 30 230t84 223t132 199t173 160t206 107t233 39t212 -48t150 -128t89 -183t29 -211q0 -186 -56 -367t-165 -324t-270 -231t-369 -88q-124 0 -214 56t-149 146t-87 201t-28 219zM190 568q0 -60 19 -126t55 -122t90 -93t124 -37q148 0 271 67t211 175t137 241 t49 265q0 76 -4 156t-28 145t-77 106t-151 41q-30 0 -82 -2t-104 -12t-90 -30t-38 -56q0 -4 7 -18t16 -30t16 -30t7 -18q0 -6 -18 -25t-28 -23q-112 -28 -186 -72t-118 -112t-61 -164t-17 -226z" />
<glyph unicode="P" horiz-adv-x="1096" d="M22 1756q0 68 26 113t70 72t99 41t113 19q48 4 95 4h19q56 -1 102 -1q92 0 183 -18t161 -62t114 -118t44 -186q0 -98 -38 -195t-100 -184t-139 -159t-154 -124t-147 -80q-58 -23 -99 -23q-9 0 -17 1q-28 -88 -33 -186q-4 -70 -4 -138q0 -27 1 -55q2 -95 6 -180 q1 -21 1 -41q0 -59 -9 -105q-12 -61 -45 -92q-24 -22 -67 -22q-17 0 -36 3q-18 158 -28 320t-17 322t-13 312t-16 290t-27 258t-45 214zM286 1086q92 0 194 49t187 125t140 171t55 189q0 68 -25 106t-66 58t-93 25t-106 5q-34 0 -83 -2t-94 -15t-77 -43t-32 -86v-582z" />
<glyph unicode="Q" horiz-adv-x="1810" d="M44 816q0 124 25 267t76 286t128 275t179 234t229 163t281 61q108 0 198 -38t163 -103t128 -151t92 -182t56 -196t19 -192t-30 -181t-65 -175t-65 -171t-30 -167v-22q26 -28 74 -77t96 -108t84 -124t36 -125q0 -44 -16 -67t-84 -23l-48 48q-16 18 -56 65t-85 100t-86 100 t-57 67h-24q-88 0 -174 -30t-173 -67t-177 -67t-186 -30q-132 0 -228 51t-158 137t-92 201t-30 241zM234 804q0 -92 14 -171t51 -136t103 -89t170 -32q26 0 76 4t109 14t120 26t110 41t81 58t32 77q0 12 -19 43t-49 73t-65 90t-68 95t-58 86t-33 65q16 40 42 46t56 6 q42 0 74 -25t57 -63t48 -83t49 -83t56 -63t72 -25t72 32t49 81t29 109t15 116t6 101t1 65q0 114 -24 229t-80 208t-148 152t-230 59q-106 0 -201 -55t-175 -145t-143 -206t-108 -239t-68 -243t-23 -218z" />
<glyph unicode="R" horiz-adv-x="1570" d="M-4 1570q0 16 1 57t1 87t1 87t1 57q24 46 76 67t114 29q50 6 97 6h24q59 -2 95 -2q50 0 115 -5t131 -17t130 -35t114 -60t80 -89t30 -124q0 -84 -40 -152t-99 -126t-128 -109t-128 -100t-99 -101t-40 -112q0 -4 3 -11t3 -11q262 -76 510 -188t488 -240q6 -4 14 -17 t15 -29t13 -30t6 -22q0 -20 -11 -30t-26 -15t-31 -6t-26 -1q-122 0 -240 53t-238 117t-244 117t-256 53h-72q36 -82 64 -146t47 -124t28 -121t9 -133q0 -14 1 -36t-2 -44t-14 -40t-35 -24q-92 54 -164 166t-125 256t-90 307t-60 319t-33 293t-10 229zM182 1262q2 -48 14 -92 t42 -74q4 -2 8 -2q4 -2 12 -2q40 0 97 24t119 64t123 92t110 108t79 112t30 104q0 44 -34 76t-80 52t-96 29t-82 9q-38 0 -89 1h-13q-45 0 -88 -6q-50 -7 -90 -27t-54 -62q0 -12 -1 -46t-1 -72t-1 -72t-1 -48q0 -30 -3 -75q-2 -27 -2 -55q0 -19 1 -38z" />
<glyph unicode="S" horiz-adv-x="1190" d="M44 1190q0 72 30 138t80 125t116 107t138 82t145 53t137 19h24q20 -8 53 -23t64 -30t53 -27t22 -14v-50q-42 -6 -108 -18t-140 -32t-149 -50t-135 -70t-98 -92t-38 -118q0 -96 67 -151t167 -90t218 -63t218 -67t167 -102t67 -171q0 -58 -34 -121t-91 -124t-128 -117 t-146 -97t-146 -66t-125 -25q-18 0 -38 4t-35 14t-22 30t3 52q12 52 57 87t104 64t124 54t119 54t90 68t36 95q0 70 -37 117t-98 80t-139 56t-159 46t-159 51t-139 70t-98 102t-37 150z" />
<glyph unicode="T" horiz-adv-x="1810" d="M44 1476q0 30 6 55t44 39q96 -3 191 -3q111 0 221 4q204 7 407 19t406 23t409 11q0 -84 -39 -123t-98 -52q-51 -11 -112 -11h-19q-24 1 -47 1q-46 0 -90 -3q-65 -4 -115 -25t-66 -77q-2 -14 -4 -52t-3 -80t-2 -79t-1 -51q0 -128 32 -251t71 -244t71 -242t32 -245 q0 -94 -106 -94q-66 0 -116 89t-86 226t-60 300t-38 312t-20 262t-6 149q-8 30 -34 41t-56 12t-59 -3t-43 -4q-38 2 -132 9t-201 15t-201 15t-132 11q0 4 -2 21t-2 25z" />
<glyph unicode="U" horiz-adv-x="1380" d="M0 1430l96 94q36 -26 58 -65t36 -79q2 -84 2 -202t8 -245t33 -252t77 -225t140 -161t222 -61q122 0 210 57t146 146t86 199t28 216q0 202 -20 412t-74 404q16 40 41 46t53 6q58 0 91 -47t50 -119t20 -157q2 -42 1.5 -82.5t-1.5 -79.5q-3 -77 -8 -136t-5 -75 q0 -116 -6 -234t-27 -227t-62 -204t-110 -165t-171 -110t-246 -40q-178 0 -294 69t-186 184t-104 261t-49 300t-20 303t-15 269z" />
<glyph unicode="V" horiz-adv-x="1430" d="M0 1476v130q98 0 162 -57t109 -150t74 -212t55 -244t54 -244t71 -212t105 -150t156 -57q6 0 12 2q4 2 10 4q10 4 28 22t22 26q4 10 18 73t37 158t52 215t61 243t65 240t64 208t59 146t48 55q26 0 42 -11t23 -29t9 -39t2 -41q0 -34 -12 -118t-33 -199t-51 -251t-66 -274 t-78 -266t-85 -227t-89 -158t-90 -59q-60 0 -116 33t-105 87t-92 122t-78 136t-63 131t-46 109q-26 60 -60 146t-71 179t-73 187t-65 169t-47 124t-18 53z" />
<glyph unicode="W" horiz-adv-x="1952" d="M0 1338q0 36 14 66t58 30q34 0 69 -74t72 -188t76 -251t84 -265t94 -229t105 -141q52 22 84 79t52 136t31 171t21 185t21 180t32 154t54 107t85 40q30 0 55 -6t41 -46l30 -84t46 -129t58 -156t66 -163t68 -153t64 -123q4 -10 23 -28t27 -22l94 96q38 38 58 113t30 172 t13 210t6 224t9 215t22 183t45 126t79 47q2 0 6 -1t8 -1q6 -2 10 -2q2 -2 10 -9l16 -14t14 -14t8 -11q0 -16 1 -56t1 -86t1 -87t1 -57q0 -44 -1 -122t-6 -177t-16 -211t-31 -222t-50 -211t-73 -178t-100 -123t-133 -46t-128 50t-90 125t-65 163t-55 163t-60 125t-78 50 q-4 0 -12 -2t-12 -2q-2 -10 -14 -78t-32 -163t-49 -204t-65 -200t-80 -152t-94 -61q-104 0 -191 79t-155 204t-119 279t-85 302t-51 275t-17 199z" />
<glyph unicode="X" horiz-adv-x="1430" d="M44 1524q0 10 1 27t5 32t15 26t29 11q52 0 91 -29t70 -72t58 -93t57 -93t67 -72t87 -29q52 0 94 33t81 83t80 109t90 109t111 83t144 33q0 -60 -27 -109t-68 -92t-88 -85t-88 -88t-68 -99t-27 -117q0 -32 44 -88t110 -121t144 -133t147 -126t118 -98t59 -48q0 -4 2 -23 t2 -27q0 -36 -16 -68t-60 -32q-4 0 -11 3t-11 3q-16 14 -49 44t-75 68t-89 79t-89 78t-77 67t-51 44q-20 18 -51 43t-61 48t-53 39t-25 14l-48 -50q-18 -18 -26 -85t-14 -157t-13 -190t-22 -185t-43 -140t-76 -55q-42 0 -63 27t-28 65q-6 33 -6 68v10q1 40 1 68q0 92 16 181 t34 178t34 177t16 182v48q-10 10 -43 40t-75 72t-89 94t-86 107t-65 109t-26 102z" />
<glyph unicode="Y" horiz-adv-x="1430" d="M44 2292q0 10 1 26t5 30t15 24t29 10q54 0 95 -39t74 -103t62 -146t59 -167t63 -167t74 -146t94 -103t123 -39q4 0 12 2t12 2q62 56 112 148t93 199t83 220t83 211t91 171t110 101l94 -98q11 -10 11 -33q0 -16 -5 -38q-12 -55 -42 -136t-74 -180t-93 -205l-98 -212 t-88 -199t-63 -167t-24 -116q0 -132 38 -257t83 -248t83 -247t38 -252v-46t-8 -52t-29 -37q-12 -7 -30 -7q-14 0 -31 4q-82 120 -145 272t-107 317t-65 333q-18 141 -18 270q0 24 1 48q-86 18 -173 80t-166 151t-149 198t-121 220t-80 216t-29 187z" />
<glyph unicode="Z" horiz-adv-x="1952" d="M0 1786q0 46 45 74t114 41t149 16q60 2 113 2h35q68 -1 114 -5t48 -4q22 0 76 -1t115 -2t115 -2t76 -1q42 -10 100 -24t111 -36t90 -57t37 -87q0 -122 -49 -239t-125 -231t-168 -228t-177 -230t-152 -237t-95 -249h96q150 0 298 9t297 19t297 19t298 9v-152 q-88 -6 -201 -23t-239 -38t-261 -44t-267 -42t-256 -31t-228 -12q-28 0 -43 11t-23 28t-10 37t-2 38q0 150 57 287t143 265t186 250t186 243t143 242t57 247q0 2 -1 5t-1 7q-2 4 -2 8q-20 20 -60 34t-87 25t-96 18t-90 10t-68 5l-27 2q-104 0 -178 -16t-138 -34t-125 -34 t-137 -16q-50 0 -70 39t-20 85z" />
<glyph unicode="[" horiz-adv-x="1240" d="M43 1235q-1 21 2 41t14 36t35 22q230 72 477 120t489 48v-41t-5 -50t-17 -47t-38 -30q-20 -4 -61 -12t-93 -17t-109 -19t-109 -19t-93 -16t-59 -11q-12 -4 -46 -9t-73 -15t-73 -28t-46 -46q26 -110 38 -224t20 -228t15 -228t23 -224h142q74 0 146 7t144 16t145 17t145 8 q22 0 42 -2t38 -12t32 -29t22 -53q2 -6 -3 -21t-12 -30t-16 -28t-17 -15q-30 -4 -93 -11t-142 -17t-167 -20t-168 -20t-144 -17t-94 -11h-54q-58 0 -98 76t-66 195t-41 262t-22 276t-8 239t-1 152q0 14 -1 35z" />
<glyph unicode="\" horiz-adv-x="1156" d="M36 1804q0 8 9 22t20 27t22 23t19 12q20 4 69 -47t115 -138t145 -202t161 -241t161 -254t146 -240t117 -201t72 -137q12 -26 6 -45t-21 -34t-34 -25t-37 -18q-52 -24 -113 8t-126 104t-132 176t-133 222t-127 244t-114 241t-96 213t-71 160q-4 8 -12 27t-17 40t-17 39 t-12 24z" />
<glyph unicode="]" horiz-adv-x="1334" d="M10 1424q0 78 56 127t143 77t194 38t210 11t189 -2t132 -3q22 0 57 -1t68 -1t57 -1t26 -1q14 -126 23 -223t14 -183t6 -166t1 -172q0 -80 9 -157t20 -154t20 -153t9 -154q0 -54 -38 -99t-98 -79t-133 -59t-143 -41t-128 -24t-86 -8q-68 0 -86 39t-18 99q0 4 1 14t3 20 t6 22l476 144q0 14 2 28q2 12 3 25t1 23q0 8 -1 26l-2 36t-2 33t-1 19q-4 100 -18 213t-21 226t-1 220t40 197q0 6 -1 18t-1 25t-1 25t-1 18q-250 0 -495 -21t-491 -21z" />
<glyph unicode="^" horiz-adv-x="952" d="M60 1456q0 42 15 106t40 138t60 152t75 144t85 116t89 70q44 -24 91 -71t95 -106t94 -124t88 -125t78 -111t62 -79q-2 -4 -14 -17t-27 -28t-31 -30t-24 -21q-6 -2 -10 -2q-6 -2 -12 -2q-10 0 -16 2q-6 0 -10 2q-66 44 -101 105t-66 115t-71 92t-114 38q-48 -114 -74 -185 t-44 -111t-33 -56t-41 -19t-69 2t-115 5z" />
<glyph unicode="_" d="M0 48v142q30 2 93 7t142 9t167 10t168 10t144 7t94 5h58q34 0 62 -16t28 -56q0 -20 -17 -41t-41 -38t-49 -28t-41 -11h-808z" />
<glyph unicode="`" d="M230 1682q8 44 28 57t46 4t56 -37t61 -64t59 -76t52 -74q2 -4 10 -15t14 -17q24 -28 23 -58t-16 -50t-42 -23t-53 25z" />
<glyph unicode="a" horiz-adv-x="1380" d="M44 482q0 84 23 176t66 182t103 171t135 143t161 99t182 37q160 -16 251 -80t138 -162t64 -220t27 -251t26 -257t64 -238q-28 -74 -54 -104q-15 -18 -32 -18q-12 0 -25 9q-31 21 -72 98t-101 219q-84 -58 -145 -103t-119 -76t-124 -47t-160 -16q-208 0 -308 110t-100 328 zM234 478q0 -126 48 -185t170 -59q90 0 173 32t146 89t101 137t38 176q0 40 2 113v22q0 62 -9 122q-11 71 -42 123t-95 52q-114 0 -212 -59t-169 -150t-111 -201t-40 -212z" />
<glyph unicode="b" horiz-adv-x="1380" d="M44 1524q0 16 1 57t1 86t1 86t1 57q22 44 71 82t101 38q0 -166 4 -351t28 -370t76 -361t148 -324q2 54 4 118t12 129t32 125t66 106t114 73q65 25 162 25h14q96 0 173 -36t129 -97t80 -142t28 -171q0 -122 -61 -240t-159 -211t-221 -150t-249 -57q-64 0 -124 23t-96 77 q-68 200 -129 374t-107 342t-73 341t-27 371zM618 238q4 0 23 -2t25 -2q60 0 137 37t149 93t126 124t64 130q1 8 1 17q0 32 -17 70q-22 49 -58 94t-80 76t-82 31q-44 -24 -93 -57t-90 -103t-70 -190t-35 -318z" />
<glyph unicode="c" horiz-adv-x="1048" d="M0 668q0 94 41 196t110 186t159 139t190 55q52 0 103 -18t92 -51t66 -80t25 -103q-40 0 -72 9t-63 21t-61 21t-66 9q-90 0 -147 -46t-90 -115t-45 -148t-12 -147q0 -12 1 -43t2 -65t2 -65t3 -43q24 -54 47 -83t50 -43t58 -17t73 -3q58 0 102 17t81 42t71 55t70 55t80 42 t100 17q0 -108 -39 -193t-109 -145t-165 -92t-205 -32q-106 0 -189 71t-142 175t-90 219t-31 203z" />
<glyph unicode="d" horiz-adv-x="1240" d="M-4 262q0 130 64 230t160 174t207 126t207 87t160 56t64 35q0 76 -8 151t-17 150t-17 150t-8 149v144q41 14 71 14q38 0 60 -22q23 -24 23 -68q0 -29 -10 -68q8 -50 24 -154t35 -235t40 -276t39 -277t32 -236t20 -154q2 -12 4 -44t4 -68t3 -68t1 -44q-84 0 -115 6t-38 26 t-7 58t-22 104q-82 -64 -156 -106t-147 -67t-148 -35t-159 -10q-70 0 -136 12t-117 43t-82 84t-31 133zM190 310q0 -36 15 -59t39 -38t52 -21t56 -6q78 0 168 30t166 85t126 130t50 165q0 68 -24 95t-94 27t-165 -33t-182 -89t-147 -130t-60 -156z" />
<glyph unicode="e" horiz-adv-x="1240" d="M44 618q0 120 29 240t93 216t165 156t245 60q82 0 144 -30t104 -79t64 -115t22 -138q0 -112 -53 -219t-141 -188t-201 -122q-74 -27 -149 -27q-41 0 -82 8q2 -64 43 -103t99 -59t121 -26t111 -6q50 0 95 9t89 20t90 20t96 9q20 0 41 -2t38 -10t28 -24t11 -42 q0 -42 -31 -70t-78 -47t-105 -30t-113 -16t-100 -6t-67 -1q-144 0 -257 45t-191 126t-119 196t-41 255zM280 762q0 -78 21 -113t103 -35q58 0 114 21t101 59t72 89t27 111q0 32 -6 68t-23 66t-45 49t-72 19q-68 0 -122 -30t-92 -78t-58 -107t-20 -119z" />
<glyph unicode="f" horiz-adv-x="1570" d="M52 1032h372q12 124 39 246t72 233t110 207t156 165t209 109t270 40q54 0 107 -26t95 -68t68 -95t26 -107q-42 0 -76 17t-65 38t-66 39t-79 18q-134 0 -249 -53t-200 -142t-134 -207t-49 -248q0 -8 1 -32t1 -51t1 -51t1 -32q82 -28 184 -41t206 -16q45 -1 88 -1 q58 0 113 2q97 4 171 10q8 -6 25 -24t21 -26q0 -6 2 -10l4 -12q0 -48 -49 -74t-125 -39t-168 -17t-177 -7t-153 -9t-96 -22q30 -132 104 -257t152 -249t138 -251t60 -261q-8 0 -40 -1h-11q-27 0 -57 4q-36 5 -68 19t-38 44q-46 86 -102 216t-117 271t-126 277t-131 236 q-28 20 -74 24q-37 3 -77 3h-20h-25q-38 0 -76 2q-50 3 -87 23t-55 63q-11 26 -11 65q0 26 5 58z" />
<glyph unicode="g" horiz-adv-x="1286" d="M0 596q0 74 36 144t94 131t133 112t154 88t155 57t138 20q56 0 94 -3t65 -17t46 -44t37 -82q50 -174 117 -374t127 -411t101 -425t41 -414q0 -178 -50 -301t-131 -202t-184 -121t-208 -55q-68 -8 -134 -8q-35 0 -69 2q-98 7 -169 26t-107 43t-18 41t101 24q25 2 58 2 q76 0 191 -11q124 0 222 46t166 124t104 179t36 211q0 56 -5 147t-16 197t-32 218t-53 211t-77 173t-105 104q-58 -44 -114 -80t-116 -61t-124 -39t-138 -14q-94 0 -162 18t-114 60t-68 111t-22 173zM178 584v-16q0 -62 27 -108q31 -52 90 -77q31 -13 66 -13q32 0 68 11 q75 23 161 101t172 232q0 38 1 82v9q0 39 -8 72q-9 37 -33 61t-74 24q-164 -36 -265 -99t-151 -135t-54 -144z" />
<glyph unicode="h" horiz-adv-x="1084" d="M46 608q2 122 12 247t21 237t20 204t9 148q0 24 6 61t20 70t37 57t57 24q4 0 12 -2t12 -2q38 -138 44 -274q2 -48 2 -95q0 -86 -7 -169q-11 -128 -33 -246t-37 -218t-18 -181v-16q0 -70 23 -119q-4 34 -5 84v9q0 46 9 95q10 54 33 107t68 95t115 67t174 25q108 0 187 -38 t131 -103t77 -153t25 -188q0 -48 -1 -107t-16 -109t-51 -84t-108 -34q0 36 5 97t6 130v20q0 59 -5 120q-6 71 -30 128t-68 93t-118 36q-28 0 -67 -3t-79 -21t-77 -54t-60 -100t-26 -161v-21q0 -91 23 -216q-14 -40 -38 -46t-58 -6q-72 0 -117 50t-70 134t-33 195 q-6 89 -6 185v48z" />
<glyph unicode="i" horiz-adv-x="524" d="M60 1518q0 60 23 104t87 44q42 -18 71 -58q25 -35 25 -64v-8q-4 -32 -50 -44q-11 -3 -26 -3q-46 0 -130 29zM138 834q0 12 1 42t2 64t2 65t1 43q24 36 63 58t79 36q8 -120 39 -255t66 -272t63 -270t28 -249q0 -100 -102 -100q-62 0 -104 51t-68 130t-41 176t-21 190 t-7 171t-1 120z" />
<glyph unicode="j" horiz-adv-x="668" d="M-482 -700q64 0 118 -33t112 -72t127 -72t161 -33q90 0 177 23t156 71t111 124t42 182q0 172 -28 359t-71 372t-93 361t-92 324q0 4 -2 12t-2 12q0 44 31 60t67 16q8 0 26 -2t22 -2q70 -172 131 -354t107 -368t73 -374t27 -372q0 -146 -50 -263t-139 -200t-212 -127 t-269 -44q-94 0 -189 21t-171 68t-123 123t-47 188zM40 1548v28t5 41t16 36t33 15q38 0 58 -9t29 -24t11 -36t2 -47q0 -18 -2 -41t-9 -42t-23 -32t-42 -13t-42 12t-24 30t-10 40t-2 42z" />
<glyph unicode="k" horiz-adv-x="1286" d="M43 1714v7q0 28 7 53q8 28 29 50t65 34q2 1 4 1q6 0 16 -4q14 -5 29 -13t28 -17t17 -15q-5 -77 -5 -153q0 -336 101 -657q6 6 35 45t73 92t101 113t119 111t125 85t119 34q34 0 66 -16t32 -60q0 -4 -2 -12t-2 -12l-108 -96t-152 -144t-153 -167t-111 -165q-6 -12 -4 -22 t4 -24q24 -8 77 -26t118 -41t138 -49t138 -50t117 -43t78 -29q32 -12 52 -17t31 -13t15 -21t4 -39q0 -64 -31 -85t-89 -21q-170 12 -335 73t-333 149q-2 -15 -2 -31q0 -32 8 -68q12 -55 29 -111t34 -109t21 -95q1 -9 1 -18q0 -30 -11 -49q-14 -25 -60 -25q-12 -10 -24 -10 q-25 0 -51 40q-39 60 -79 181t-79 290t-74 358t-67 383t-58 366q0 30 -1 62z" />
<glyph unicode="l" horiz-adv-x="520" d="M85 1492q5 48 35 77t110 29q24 -52 47 -156t45 -240t42 -294t37 -319t29 -315t18 -280q-39 -27 -70 -27q-27 0 -47 20q-45 43 -73 144t-44 246t-31 302t-34 309t-51 270q0 64 -9 125q-6 39 -6 73q0 19 2 36z" />
<glyph unicode="m" horiz-adv-x="1952" d="M-4 934q0 54 19 86t81 32q6 0 25 -2t23 -2q16 -68 33 -149t39 -163t50 -162t68 -146q40 44 57 101t26 116t17 114t33 94t72 56q24 9 59 9q33 0 74 -8q92 0 148 -35t97 -87t80 -111t99 -105q12 28 33 71t50 91t64 96t73 87t78 64t78 25q90 0 157 -56t115 -142t79 -191 t49 -203t25 -179t7 -117q0 -28 -13 -44t-33 -24t-43 -10t-43 -2q-6 0 -15 1t-19 3t-24 6l-144 666q0 6 -18 25t-28 23q-6 0 -10 2q-4 0 -7 1t-5 1q-46 0 -87 -37t-77 -95t-67 -129t-55 -141t-43 -129t-31 -91q-8 -4 -35 -7t-35 -3q-62 0 -96 43t-55 108t-35 141t-36 141 t-58 108t-102 43q-26 0 -48 -49t-40 -123t-33 -160t-25 -160t-15 -125t-5 -53q-4 -6 -17 -14t-28 -16t-29 -13t-22 -5q-62 0 -119 57t-105 147t-87 199t-66 213t-41 189t-14 129z" />
<glyph unicode="n" horiz-adv-x="1286" d="M44 748q0 58 29 84t93 26h24q6 -36 15 -83t26 -95t42 -90t61 -66q2 78 39 150t91 129t120 96t130 53h48q108 0 183 -48t125 -125t77 -175t41 -199t17 -195t3 -162h-162q-12 134 -32 256q-8 50 -19 104t-24 102t-29 89t-36 69q-8 10 -23 26t-30 31t-28 26t-17 11 q-19 5 -37 5q-43 0 -78 -30q-49 -43 -86 -117t-61 -167t-39 -178t-22 -149t-9 -78q-39 -27 -75 -27q-15 0 -30 5q-49 16 -92 69t-78 133t-64 170t-52 182t-41 168z" />
<glyph unicode="o" d="M44 452q0 138 65 256t170 204t237 135t268 49q76 0 135 -49t99 -119t61 -148t21 -136q0 -124 -60 -241t-156 -207t-216 -145t-240 -55q-106 0 -179 36t-118 98t-66 145t-21 177zM234 428q0 -56 10 -100t35 -75t67 -47t106 -16q82 0 164 45t147 115t106 154t41 164 q0 36 -7 78t-23 78t-45 61t-73 25q-40 0 -94 -27t-113 -69t-116 -96t-103 -107t-74 -102t-28 -81z" />
<glyph unicode="p" horiz-adv-x="1048" d="M44 820q0 216 100 320t308 104q84 0 174 -15t165 -54t123 -108t48 -177q0 -122 -52 -227t-131 -197t-173 -171t-178 -151q-4 -8 -7 -36t-3 -36q0 -74 43 -148t94 -151t94 -159t43 -172q0 -52 -23 -63t-93 -11q-44 18 -88 84t-87 162t-84 214t-78 242t-69 245t-57 223 t-43 177t-26 105zM234 800q0 -34 4 -97t19 -125t44 -108t79 -46q70 0 139 47t124 118t89 152t34 149q0 54 -26 87t-67 51t-88 24t-89 6q-126 0 -194 -68t-68 -190z" />
<glyph unicode="q" horiz-adv-x="1224" d="M48 618q0 122 47 205t124 134t175 73t200 22q112 -6 204 -76t164 -181t125 -250t87 -283t50 -280q14 -121 14 -217v-24q-2 -105 -19 -167q-15 -57 -45 -57q-3 0 -6 1q-58 8 -89 52t-47 108t-20 141t-6 154t-7 146t-21 115t-49 64q-13 7 -31 7q-26 0 -60 -15 q-46 0 -91 -16t-89 -36t-90 -36t-96 -16q-98 0 -176 33t-133 90t-85 136t-30 173zM238 596q0 -38 19 -76t50 -69t69 -51t76 -20t98 17t117 49t99 75t42 97q0 76 -8 131t-31 91t-65 53t-110 17q-56 0 -118 -26t-115 -70t-88 -101t-35 -117z" />
<glyph unicode="r" horiz-adv-x="1136" d="M44 934q0 20 2 41t9 38t22 28t41 11q22 0 50 -35t57 -87t56 -114t49 -115t35 -90t15 -39q28 76 64 168t88 171t125 132t177 53q52 0 100 -17t85 -49t59 -77t22 -101q0 -50 -39 -70t-87 -20h-22l-96 96q-4 0 -8 2q-4 0 -7 1t-7 1q-78 0 -122 -43t-66 -106t-27 -134 t-5 -127q0 -46 9 -91t20 -89t20 -89t9 -93q0 -94 -100 -94q-56 0 -116 59t-119 150t-112 201t-93 214t-64 189t-24 125z" />
<glyph unicode="s" horiz-adv-x="1096" d="M44 910q0 120 46 216t121 171t170 131t191 96q58 -16 106 -56t84 -88q-16 -48 -61 -75t-104 -47t-123 -42t-117 -59t-88 -96t-35 -155q0 -70 35 -104t93 -46q44 -9 95 -9q17 0 36 1q73 4 150 10t150 7h8q68 0 123 -17q58 -18 93 -61t35 -125q0 -36 -24 -91t-63 -118 t-91 -126t-109 -113t-113 -82t-106 -32q-46 0 -60 33t-14 67q34 24 84 63t101 84t96 94t71 94t26 85t-42 66q-70 0 -154 -5q-70 -4 -141 -4h-28q-85 1 -164 14t-141 49t-99 101t-37 169z" />
<glyph unicode="t" horiz-adv-x="1430" d="M-4 1120q0 6 2 12q0 4 2 10q8 12 26 30t22 18h448q0 24 -7 77t-12 118q-4 46 -4 95q0 19 1 39q2 69 19 126t53 94t102 37q0 -224 32 -360t84 -209t119 -96q57 -20 116 -20q10 0 20 1q69 4 136 22t119 24q14 2 27 2q34 0 57 -12q32 -16 32 -80q0 -46 -22 -66t-82 -30 q-18 -4 -59 -9t-92 -10t-108 -10t-109 -9t-94 -6t-62 -2q0 -10 -2 -37t-2 -35q0 -98 31 -190t68 -183t68 -183t31 -188q0 -18 -3 -37t-13 -34t-29 -22q-8 -3 -18 -3q-15 0 -35 6q-84 22 -125 96t-61 175t-27 214t-21 212t-46 169t-100 86l-430 96q-8 0 -26 19t-22 29 q-2 4 -2 10q-2 6 -2 14z" />
<glyph unicode="u" d="M44 906q0 14 1 48t1 72t1 71t1 45q16 28 37 53t45 35t51 3t57 -43v-18v-30q-2 -10 -9 -52t-16 -90t-16 -90t-7 -52q0 -42 8 -105t25 -132t43 -138t61 -124t79 -90t100 -35q72 0 126 37t94 97t66 136t42 153t22 148t6 123q0 54 -8 102t-19 95t-19 92t-8 93q0 42 31 59 t67 17q48 0 77 -27t45 -70t22 -97t6 -107t-2 -101t-2 -78q0 -74 -12 -170t-39 -197t-68 -199t-100 -174t-136 -123t-173 -47q-100 0 -175 48t-128 127t-88 178t-54 200t-27 195t-8 162z" />
<glyph unicode="v" horiz-adv-x="1190" d="M32 1158q13 49 32 49h4q22 -5 53 -51t69 -124t83 -168t97 -184t109 -171t120 -129t131 -60l176 920q6 38 36 44t58 6q100 0 100 -94q0 -50 -9 -156t-29 -234t-49 -263t-69 -246t-92 -182t-114 -71q-92 0 -181 61t-167 160t-144 222t-114 246t-74 236t-26 189z" />
<glyph unicode="w" horiz-adv-x="1668" d="M-4 952q0 36 16 68t60 32q2 0 6 -1t8 -1q6 -2 10 -2q6 -4 25 -22t23 -26q8 -14 29 -58t51 -103t62 -125t62 -125t51 -103t29 -58q4 -6 22 -25t28 -23q18 32 36 94t36 136t39 153t46 143t56 105t71 41q58 0 110 -45t100 -116t91 -159t82 -173t74 -158t67 -115q28 10 46 45 t28 74t14 74t6 45q2 24 7 77t10 119t10 138t10 138t8 118t5 76q4 0 21 3t25 3q30 0 55 -7t39 -47q0 -16 1 -56t2 -85t2 -86t1 -57q0 -36 1 -110v-38q0 -59 -2 -127q-3 -91 -14 -186t-35 -174t-64 -129t-100 -50q-68 0 -128 34t-113 89t-99 123t-85 138t-71 133t-58 107 q-16 -38 -31 -99t-33 -130t-40 -139t-50 -127t-64 -93t-84 -36q-22 0 -40 -1h-7q-14 0 -26 3q-15 4 -28 15t-25 35l-380 810q0 4 -2 20t-2 26z" />
<glyph unicode="x" horiz-adv-x="1096" d="M-4 1072q0 42 35 58t69 16q4 0 10 -1t14 -1q8 -2 20 -2l312 -262q80 116 130 180t79 94t43 36t22 6h33t39 -4t35 -15t21 -35q-38 -38 -71 -76t-62 -81t-55 -96t-52 -121q42 -30 105 -87t129 -124t128 -138t103 -133t54 -106q4 -13 4 -24q0 -24 -21 -34q-32 -40 -43 -59 t-23 -12t-32 42t-72 101t-143 166t-243 238l-18 -550q0 -2 -8 -8t-18 -14t-22 -15t-20 -11h-26h-24q-10 8 -29 26t-19 22v620l-380 380q-2 4 -2 8q-2 4 -2 16z" />
<glyph unicode="y" horiz-adv-x="1096" d="M6 1150q0 20 2 41t9 39t22 29t43 11q2 0 6 -1t8 -1q6 -2 10 -2q44 -56 75 -146t59 -192t62 -205t87 -185t131 -131q69 -44 169 -44q12 0 25 1q50 0 66 56t17 143v25q0 77 -5 166q-3 52 -3 101.5t3 96.5q6 94 34 166t96 96q30 -58 48 -181t27 -285t9 -349t-9 -373 t-26 -357t-40 -300t-52 -203q-26 -65 -55 -65q-4 0 -8 1q-48 44 -73 115t-35 158q-8 73 -8 152v32q2 97 8 195t13 191t7 171q-16 -2 -31 -2q-64 0 -131 26q-84 32 -164 97t-152 159t-126 211t-86 254t-32 289z" />
<glyph unicode="z" horiz-adv-x="1286" d="M0 1286q0 38 6 57t17 27t27 9t36 1h58q28 -2 88 -5t135 -7t158 -9t158 -10t134 -9t89 -6q40 -24 68 -44t45 -40t25 -44t8 -60q0 -74 -31 -147t-79 -145t-109 -144t-119 -143t-109 -142t-81 -139h572q64 0 82 -24t18 -68q0 -32 -7 -58t-47 -40q-106 -10 -215 -27t-218 -35 t-219 -31t-218 -13q0 158 50 306t128 286t173 267t185 247q6 4 9 12t3 12q0 52 -61 68q-57 15 -141 15h-11q-91 -1 -197 -10q-95 -8 -179 -8h-18q-91 1 -152 22t-61 79z" />
<glyph unicode="{" horiz-adv-x="1048" d="M176 1574q0 78 34 153t91 133t133 93t158 35q26 0 58 -5t62 -16t55 -29t37 -44q-52 -32 -125 -56t-142 -57t-117 -83t-48 -134q0 -68 25 -126t63 -110t83 -101t83 -101t63 -110t25 -128q0 -44 -16 -81t-34 -72t-34 -70t-16 -77q0 -8 -5 -70t-6 -151t4 -190t25 -187 t59 -143t105 -57q44 0 78 17t64 37t60 37t70 17q42 0 58 -32t16 -72q0 -66 -39 -111t-96 -74t-122 -41t-117 -12q-98 0 -169 58t-120 151t-80 209t-47 230t-22 216t-6 168q0 42 22 81t54 76t65 73t55 74q-60 78 -122 156t-111 161t-80 173t-31 192z" />
<glyph unicode="|" horiz-adv-x="618" d="M113 1500q5 48 36 77t109 29q44 -40 83 -137t72 -232t59 -296t43 -327t25 -327t6 -293q-54 -36 -95 -20t-73 71t-57 142t-45 194t-36 225t-34 236t-37 227t-43 197q0 64 -9 125t-4 109z" />
<glyph unicode="}" horiz-adv-x="762" d="M12 1720q0 50 16 83t45 52t66 26t79 7q50 0 112 -19t116 -54t91 -85t37 -110q0 -2 -1 -5t-1 -7q-2 -6 -2 -10q-4 -12 -19 -45l-35 -77t-42 -94t-42 -94l-35 -77t-19 -43v-24q0 -66 25 -110t63 -76t81 -56t81 -49t63 -55t25 -74q0 -46 -18 -78t-46 -56t-60 -46t-60 -47 t-46 -58t-18 -81q0 -52 17 -95t36 -86t36 -88t17 -101q0 -66 -15 -136t-50 -127t-90 -93t-135 -36q-34 0 -69 2t-63 12t-46 32t-18 64q0 58 21 84t54 37t70 15t70 18t54 45t21 97q0 46 -23 94t-50 99t-50 105t-23 112v10t2 14q0 8 2 18q4 8 27 43t48 75t46 75t21 45 q0 46 -30 96t-67 104t-67 113t-30 125t24 121t52 107t52 104t24 110q0 56 -41 86t-95 44t-108 16t-80 2z" />
<glyph unicode="~" horiz-adv-x="1380" d="M76 1142q0 74 13 155t49 149t99 112t163 44q72 0 124 -32t93 -80t77 -105t75 -105t87 -80t114 -32q74 0 109 23t46 59t8 81t-4 88t9 78t48 55h24h22q6 -2 20 -8t29 -13t29 -14t20 -11q0 -8 1 -25t1 -36t1 -36t1 -23q0 -194 -103 -304t-293 -110q-74 0 -127 29t-94 73 t-75 96t-69 96t-76 73t-97 29q-70 0 -101 -27t-42 -69t-11 -94t-6 -100t-27 -87t-73 -57l-50 46q-2 6 -4 27t-4 46l-4 50t-2 39z" />
<glyph unicode="&#xa1;" horiz-adv-x="418" d="M92 -42q60 -52 94 -23.5t50 107.5t19 191t4 228t4 220.5t19 164.5q0 32 -4 54t-16 36.5t-36 21t-64 6.5q-6 0 -13 -5.5t-14 -36t-13 -92t-12 -173.5t-11 -281.5t-7 -417.5zM127 1405q-3 -22 11 -43.5t36 -37t46 -20t40 6.5q28 0 56 16.5t36 40.5t-14 52.5t-96 51.5 q-60 -7 -86 -26t-29 -41z" />
<glyph unicode="&#xa2;" horiz-adv-x="1048" d="M0 668q0 94 41 196t110 186t159 139t190 55q52 0 103 -18t92 -51t66 -80t25 -103q-40 0 -72 9t-63 21t-61 21t-66 9q-90 0 -147 -46t-90 -115t-45 -148t-12 -147q0 -12 1 -43t2 -65t2 -65t3 -43q24 -54 47 -83t50 -43t58 -17t73 -3q58 0 102 17t81 42t71 55t70 55t80 42 t100 17q0 -108 -39 -193t-109 -145t-165 -92t-205 -32q-106 0 -189 71t-142 175t-90 219t-31 203zM262 1432q38 84 72 71t65 -95t61 -218t58 -294t54 -324t53 -310t53 -251t54 -147q-4 0 -35 -4t-65 -10t-63 -10t-31 -4q-48 158 -97 364t-89 424t-65 429t-25 379z" />
<glyph unicode="&#xa3;" horiz-adv-x="1380" d="M-180 740q0 6 2 24t2 22q34 0 87 4t117 8q-8 90 -13 195t-8 200t-5 167t-2 98q0 104 62 149t159 49t215 -26t230 -77t205 -102t139 -103t32 -80t-116 -32q2 0 -55 18t-143 44t-187 57t-187 57t-143 44t-55 18q4 -48 8 -126t8 -168t10 -186t16 -180q60 4 117 7t108 4t92 0 t67 -5q40 0 56 -9t16 -61q-38 -26 -88 -43t-107 -29t-117 -19t-118 -9q12 -74 19 -126t17 -95t27 -82t49 -85q42 -26 51 -38t16 -10t27 17t81 43t178 68t319 92q140 -18 213 -70t100 -115t20 -123t-26 -95t-40 -32t-21 67q0 84 -55 120t-140 37t-186 -24t-193 -60t-162 -74 t-90 -65q-38 -46 -77 -44t-78 42t-75 110t-67 157t-53 185t-34 194h-124q-62 -4 -81 24t-19 72z" />
<glyph unicode="&#xa4;" horiz-adv-x="1524" d="M84 1280q0 44 35 60t69 16q4 0 10 -1t14 -1q8 -2 20 -2l228 -226q108 100 249 156t289 56q40 0 75 -16t65 -40q46 18 91 40t82 43t61 35t28 14q28 0 53 -37t35 -83q-28 -28 -95 -66t-149 -84q34 -66 51 -136t17 -124q0 -102 -42 -201t-114 -183q50 -56 91 -109t65 -97 t28 -75t-20 -41q-26 -32 -38 -51t-21 -21t-19 12t-33 48t-64 88t-111 132q-88 -70 -189 -109t-203 -39q-46 0 -84 7t-72 19l-156 -218q0 -2 -8 -9t-19 -14t-23 -14t-20 -11h-50q-10 8 -28 26t-18 22l190 308q-52 64 -75 151t-23 189q0 78 22 152t62 138l-252 274q-2 4 -2 8 q-2 4 -2 14zM430 670q0 -56 10 -100t35 -75t68 -47t107 -16q82 0 163 45t146 115t106 154t41 164q0 36 -6 78t-23 78t-46 60t-73 24q-74 0 -166 -28t-172 -87t-135 -150t-55 -215z" />
<glyph unicode="&#xa5;" horiz-adv-x="1430" d="M44 2292q0 10 1 26t5 30t15 24t29 10q54 0 95 -39t74 -103t62 -146t59 -167t63 -167t74 -146t94 -103t123 -39q4 0 12 2t12 2q62 56 112 148t93 199t83 220t83 211t91 171t110 101l94 -98q18 -16 6 -71t-42 -136t-74 -180t-93 -205l-98 -212t-88 -199t-63 -167t-24 -116 q0 -264 11 -510t11 -506v-45t-8 -51t-28 -37t-62 -3q-80 120 -109 274t-32 320t10 336t17 320q-86 18 -173 80t-166 151t-149 198t-121 220t-80 216t-29 187zM300 1130l46 48q182 10 350 18q72 4 149 8t150 7t139 6t118 7h28q44 0 58 -30t14 -64q0 -54 -19 -84t-81 -58 q-18 0 -62 -1t-93 -1t-93 -1t-62 -1q-38 0 -94 -3t-121 -4t-131 5t-125 22t-104 46t-67 80zM324 522q0 92 62 146t157 82t208 35t215 5t178 -7t98 -3q64 4 82 -24t18 -68q0 -54 -30 -83t-75 -42t-96 -17t-91 -6q-26 -2 -83 -3t-129 -3t-151 -4t-151 -4t-129 -3t-83 -1z" />
<glyph unicode="&#xa6;" horiz-adv-x="524" d="M76 1446v85t11 113t36 98t75 42q38 0 59 -51t31 -131t11 -176t2 -184t4 -159t15 -99l-172 -18q-16 74 -29 132t-23 112t-15 110t-5 126zM156 838h180q24 -92 31 -199t10 -206t5 -179t14 -116q0 -4 2 -13t2 -13q0 -24 -16 -39t-39 -23t-48 -11t-45 -3q-8 0 -26 2t-22 2 q-28 92 -30 189t1 198t3 203t-22 208z" />
<glyph unicode="&#xa7;" horiz-adv-x="1082" d="M50 1194q0 108 38 181t101 117t145 63t169 18t173 -20t158 -49q50 -22 61 -54t-2 -61t-43 -48t-62 -11q-42 10 -101 25t-122 26t-124 12t-110 -17t-79 -62t-30 -122q0 -62 43 -92t109 -40t144 -4t150 18q58 2 116 -6t105 -31t76 -62t29 -97q0 -32 -2 -73t-11 -86t-29 -89 t-58 -80t-96 -62t-142 -32q80 4 150 -7t122 -42t82 -85t30 -134q0 -72 -51 -119t-132 -74t-179 -38t-191 -13t-172 0t-119 2q-38 0 -45 30t4 64t34 58t45 10q46 -10 122 -19t158 -11t158 7t122 34t51 70t-57 115q-64 0 -137 -2t-145 1t-139 17t-118 47t-82 87t-31 140 q0 110 48 192t124 146q-54 8 -102 25t-82 48t-54 77t-20 112zM308 592q0 -34 12 -52t34 -25t51 -9t63 -6q52 2 113 24t117 57t97 79t55 91t-9 93t-97 84q-26 8 -69 9t-92 -10t-98 -35t-88 -64t-64 -98t-25 -138z" />
<glyph unicode="&#xa8;" horiz-adv-x="1706" d="M476 1631q-2 33 24 65t94 48q100 0 100 -104q-26 -64 -62 -86t-70 -16t-59 33t-27 60zM980 1631q-2 33 24 65t94 48q100 0 100 -104q-26 -64 -62 -86t-70 -16t-59 33t-27 60z" />
<glyph unicode="&#xa9;" horiz-adv-x="1836" d="M76 790q0 94 16 196t49 200t84 186t120 155t157 107t196 40q182 34 366 -13t331 -159t237 -281t88 -377q2 -128 -45 -252t-130 -232t-196 -195t-243 -143t-270 -76t-278 6q-112 0 -191 40t-132 108t-85 154t-48 180t-21 186t-5 170zM222 680q0 -90 19 -192t65 -189 t123 -144t193 -57q116 -24 233 -1t225 78t200 136t158 172t98 185t20 176q24 86 -1 175t-84 171t-144 151t-182 117t-201 68t-198 6q-98 0 -175 -42t-135 -111t-99 -158t-66 -184t-37 -188t-12 -169zM458 838q0 74 34 155t92 149t134 111t160 43q44 0 87 -14t77 -41t55 -64 t21 -81q-32 0 -59 7t-53 16t-51 17t-55 8q-76 0 -124 -37t-75 -91t-38 -118t-11 -118q0 -10 1 -34t2 -51t2 -51t1 -34q20 -42 39 -66t42 -35t50 -13t61 -2q72 0 121 28t92 63t91 63t120 28q0 -86 -33 -154t-92 -116t-138 -73t-171 -25q-88 0 -159 57t-121 139t-76 173 t-26 161z" />
<glyph unicode="&#xaa;" horiz-adv-x="820" d="M37 581q0 45 13.5 94.5t38.5 98t60 92t79 77t94.5 53.5t106.5 20q94 -9 147.5 -43.5t81 -87t37.5 -118.5t15.5 -135.5t15 -138.5t37.5 -128q-16 -40 -31.5 -56t-33.5 -4.5t-42 53t-59 117.5q-49 -31 -85 -55.5t-70 -41t-72.5 -25t-93.5 -8.5q-122 0 -180.5 59t-58.5 177z M148 578q0 -67 28 -99t100 -32q53 0 101.5 17t85.5 48t59 74t22 95q0 21 1.5 60.5t-5 77.5t-25 66t-55.5 28q-67 0 -124.5 -31.5t-99 -80.5t-65 -108.5t-23.5 -114.5z" />
<glyph unicode="&#xab;" horiz-adv-x="1836" d="M44 572q0 72 45 146t118 144t166 131t190 107t189 73t162 27q0 -64 -33 -117t-86 -100t-118 -90t-129 -86t-121 -89t-93 -100q-2 -6 -4 -10q-2 -6 -2 -12q0 -8 2 -14t4 -10q4 -4 21 -23t25 -25q12 -8 53 -33t95 -60t115 -73t115 -73t94 -61t54 -34q6 -4 24 -22t22 -24 q0 -6 2 -12q0 -4 1 -8t1 -6t-1 -5t-1 -7q-2 -6 -2 -10q-6 -10 -21 -27t-30 -32t-28 -26t-17 -11q-36 0 -110 28t-164 75t-185 107t-174 124t-129 126t-50 112zM734 576q0 72 45 146t118 144t167 131t190 107t188 73t162 27q0 -64 -33 -117t-86 -100t-118 -90t-129 -86 t-121 -89t-93 -100q-2 -6 -4 -10q-2 -6 -2 -12q0 -8 2 -14t4 -10q4 -4 21 -23t27 -25q12 -8 52 -33t94 -60t115 -73t115 -73t94 -61t54 -34q6 -4 24 -22t22 -24q0 -6 2 -12q0 -4 1 -8t1 -6t-1 -5t-1 -7q-2 -6 -2 -10q-6 -10 -21 -27t-30 -32t-28 -26t-17 -11q-36 0 -110 28 t-164 75t-185 107t-174 124t-129 126t-50 112z" />
<glyph unicode="&#xac;" horiz-adv-x="1392" d="M96 800q0 78 56 128t143 77t194 37t210 12t189 -2t132 -4q22 0 57 -1t68 -1t57 -1t26 -1q12 -96 21 -156t16 -101t12 -71t9 -65t6 -83t6 -126h-176q-4 70 -9 112t-9 70t-8 46t-7 40t-5 52t-2 82q-250 0 -495 -22t-491 -22z" />
<glyph unicode="&#xad;" d="M170 722q0 8 2 26t2 22q36 0 97 5t134 11t152 12t150 9t131 2t94 -7q40 0 56 -9t16 -59q-66 -46 -166 -67t-205 -30t-203 -9t-160 -2q-62 -4 -81 25t-19 71z" />
<glyph unicode="&#xae;" horiz-adv-x="1672" d="M90 760q0 92 22 194t63 200t102 186t138 155t171 106t202 39q102 0 202 -34t192 -92t171 -137t137 -171t91 -190t33 -196q0 -116 -29 -232t-86 -221t-140 -192t-191 -148t-238 -91t-282 -16q-112 0 -196 40t-146 108t-104 155t-67 180t-35 186t-10 171zM246 688 q0 -90 27 -191t82 -187t139 -143t200 -57q104 -22 196 -13t170 42t142 85t112 116q-62 12 -125 35t-130 50t-143 54t-166 47q26 -46 45 -84t32 -73t19 -71t6 -78q0 -8 -11 -21t-28 -26t-36 -24t-35 -13q-48 38 -82 108t-59 156t-41 181t-28 185t-23 166t-25 124 q-8 74 17 122t68 74t96 33t101 -1q54 0 126 -6t137 -27t110 -59t45 -100q8 -94 -13 -161t-57 -112t-83 -73t-90 -42t-79 -19t-50 -5q0 -4 2 -6t4 -6q148 -40 290 -91t280 -109q36 86 46 175t-10 173q0 102 -46 213t-124 205t-182 155t-220 61q-148 0 -261 -76t-189 -190 t-116 -248t-40 -248zM644 904q2 -28 10 -54t30 -44q2 -2 4 -2q2 -2 10 -2q124 10 193 41t97 71t21 83t-36 79t-74 58t-92 19t-90 -38t-69 -111q0 -18 -3 -45t-1 -55z" />
<glyph unicode="&#xaf;" horiz-adv-x="934" d="M112 1296q0 6 2 25t2 23q56 0 143 7t180 12t178 6t137 -9q40 0 56 -9t16 -61q-66 -44 -147 -63t-164 -25t-162 -3t-141 1q-60 -4 -80 25t-20 71z" />
<glyph unicode="&#xb0;" horiz-adv-x="712" d="M29 732q0 78 33.5 144.5t88 115t122.5 76t139 27.5q39 0 69.5 -27.5t51 -67t31.5 -83.5t11 -77q0 -70 -31 -136t-80.5 -116.5t-111.5 -81.5t-125 -31q-54 0 -92 20t-61 55t-34 82t-11 100zM127 719q0 -32 5 -57t18 -42.5t35 -26.5t55 -9q42 0 84.5 25.5t76 65t55 87 t21.5 92.5q0 20 -3.5 44t-12 44t-23.5 34t-38 14q-20 0 -48 -15t-58.5 -38.5t-60 -54t-53.5 -60.5t-38.5 -57.5t-14.5 -45.5z" />
<glyph unicode="&#xb1;" horiz-adv-x="1474" d="M86 820q0 8 2 14q0 6 2 10q8 10 26 28t22 18h476q14 116 37 239t57 239h50q10 -4 26 -11t31 -15t26 -15t11 -9v-446q38 0 96 13t112 14t92 -20t38 -89q0 -40 -25 -59t-63 -28t-81 -13t-81 -11t-63 -23t-25 -50q0 -52 19 -93t43 -80t45 -80t25 -91q60 0 118 5t107 10t87 7 t56 0q20 0 30 -15t15 -37t6 -50t1 -52q-44 -30 -133 -48t-200 -27t-233 -12t-233 -2t-198 2t-129 1q-30 -2 -48 10t-27 33t-12 45t-3 46q0 58 39 73t111 11t174 -16t228 -8q-30 46 -52 102t-37 113t-25 110t-12 91l-476 94q-6 0 -25 19t-23 29q-2 4 -2 10q-2 6 -2 14z" />
<glyph unicode="&#xb2;" horiz-adv-x="958" d="M23 1070q0 71 24 138.5t67.5 120.5t103.5 84.5t134 31.5q30 0 50 -2.5t34 -12t23 -27.5t20 -48q0 -11 0.5 -38.5t1 -59.5t1 -60.5t0.5 -39.5q0 -71 -8 -139t-18.5 -134.5t-18.5 -134t-8 -136.5h23l306 143q1 0 5.5 0.5t11 0.5t12.5 0.5t9 0.5q12 0 25 -1t24 -5.5 t18.5 -14t7.5 -25.5q0 -27 -17 -43.5t-39.5 -26t-46.5 -16t-39 -13.5q-12 -8 -37.5 -21t-59 -30t-69.5 -35.5t-69 -36t-59 -30.5t-39 -19q-2 0 -8 -0.5t-13 -0.5t-13 -1t-8 -1q-27 0 -41.5 6t-21 19t-7.5 32t-1 47q0 73 13 144.5t30 143.5t30.5 146t13.5 151q0 9 -0.5 34 t-0.5 52t-0.5 51.5t-0.5 34.5q-2 4 -12.5 15t-14.5 13h-15q-42 0 -70.5 -19t-49 -47t-37.5 -62t-37 -62t-45 -47.5t-64 -19.5z" />
<glyph unicode="&#xb3;" horiz-adv-x="738" d="M0 1267v28q0 48 25.5 91.5t64.5 76t83.5 51.5t82.5 19q59 0 98.5 -21.5t64.5 -58.5t37.5 -85t16.5 -100.5t1.5 -106.5t-5.5 -101q53 -9 99 -27t80 -47.5t53.5 -73t19.5 -105.5q0 -33 -11.5 -77t-32.5 -91.5t-48.5 -93t-60 -81.5t-68.5 -58t-72 -22q-24 0 -34 18.5 t-10 40.5q0 4 1.5 15.5t1.5 14.5q33 23 72 61t72.5 83t56 94t22.5 99q0 2 -0.5 4.5t-0.5 5.5q-1 2 -1 5q-5 5 -16.5 18t-24.5 27t-25 26.5t-17 17.5q-2 0 -5 1q-3 0 -5 0.5t-5 0.5q-24 0 -56.5 -21t-63 -48t-54.5 -51t-32 -31q-2 -1 -6 -1q-3 -1 -8 -1t-7 1q-3 0 -6 1 q-6 3 -16 14.5t-13 16.5v14v15q11 34 29.5 86t36.5 108.5t31 113.5t13 103q0 33 -2.5 65t-12.5 58t-30 41.5t-53 15.5q-44 0 -78.5 -27t-58 -67.5t-34 -86.5t-5.5 -86h-56q-1 0 -4.5 13.5t-8.5 32.5t-9 38.5t-6 33.5z" />
<glyph unicode="&#xb4;" d="M359 1341q-1 33 23 63q6 8 14 20t10 16q22 36 51 80t60 83t62 69t57 40t45 -4t29 -64l-242 -356q-26 -30 -52 -26t-41 25t-16 54z" />
<glyph unicode="&#xb5;" d="M42 626q0 98 1 173t1 107q0 14 1 48t1 72t1 71t1 45q16 28 37 53t45 35t51 3t57 -43v-18v-30q-2 -10 -9 -52t-16 -90t-16 -90t-7 -52q0 -42 8 -105t25 -132t43 -138t61 -124t79 -90t100 -35q72 0 126 37t94 97t66 136t42 153t22 148t6 123q0 54 -8 102t-19 95t-19 92 t-8 93q0 42 31 59t67 17q48 0 77 -27t45 -70t22 -97t6 -107t-2 -101t-2 -78v-106t1 -141t1 -162v-167t-1 -157t-1 -133q-2 -78 -38 -87t-104 23q-12 6 -19 33t-12 57t-11 51t-16 15q-20 -14 -64 -37t-94 -45t-97 -38t-73 -16q-76 0 -137 28t-109 76q-12 12 -16 21t-7 16 t-6 17t-11 26q-4 8 -6 -27t-5 -85t-8 -100t-15 -74q-10 -28 -28 -37t-36 -6t-33 15t-19 24q-16 46 -25 131t-14 187t-6 211t-1 207z" />
<glyph unicode="&#xb6;" horiz-adv-x="1590" d="M94 1190q0 112 28 212t88 176t152 120t218 44q104 0 175 -4t145 -9t169 -9t251 -4q30 0 50 -49t32 -124t18 -165t9 -169t5 -138t6 -73q8 -36 6 -105t-6 -154t-11 -180t-10 -180t-2 -153t13 -102q0 -4 2 -12t2 -12q0 -24 -16 -39t-39 -23t-48 -11t-45 -3q-8 0 -25 2t-21 2 q-2 182 -8 376t-12 384t-10 369t-4 331q0 16 -20 16t-54 -4t-77 -4t-89 18q44 -80 71 -175t41 -192t18 -192t4 -175v-42q-4 -28 -13 -82t-19 -120t-21 -137t-21 -137t-18 -119t-14 -81q-16 -32 -42 -41t-56 -8t-64 8t-68 7q0 122 16 214t35 178t35 177t16 211q0 8 -1 32 t-2 51t-2 51t-1 32q-60 -66 -105 -105t-87 -58t-90 -25t-114 -6q-84 -8 -160 21t-130 85t-78 134t-2 170z" />
<glyph unicode="&#xb7;" horiz-adv-x="688" d="M190 600q0 36 27 67t65 54t80 37t70 14q64 0 82 -38t18 -96q0 -42 -18 -73t-48 -50t-70 -28t-82 -9q-8 0 -14 2q-6 0 -10 2q-8 2 -22 15t-29 28t-28 30t-17 21q-2 4 -2 10q-2 6 -2 14z" />
<glyph unicode="&#xb8;" horiz-adv-x="1096" d="M194 -74q-6 88 12 129t46 48t59 -13t54 -50t31 -63t-10 -55q0 -70 25 -105t65 -48t92 -11t107 6t107 3t92 -20t65 -63t25 -126q0 -54 -53 -133t-132 -154t-170 -128t-165 -53q-46 0 -61 33t-15 69q34 24 85 56t104 66t101 71t75 71t28 67t-41 59q-106 0 -201 -5t-167 20 t-115 99t-43 230z" />
<glyph unicode="&#xb9;" horiz-adv-x="410" d="M48 1071v41t7.5 55.5t24.5 48t50 20.5q21 0 34 -24t21 -60.5t12 -80.5t6 -83.5t3.5 -68t3.5 -35.5q6 -17 18 -51.5t27.5 -78.5t33.5 -92t34 -91.5t29.5 -78.5t20.5 -51q0 -1 1.5 -5.5t1.5 -6.5q0 -12 -11 -19.5t-26.5 -11t-32.5 -4.5t-30 -1q-6 0 -17.5 0.5t-14.5 0.5 q-32 77 -67.5 161.5t-64 171t-46.5 174.5t-18 170z" />
<glyph unicode="&#xba;" horiz-adv-x="852" d="M34 803q0 96 43.5 178.5t114 142.5t159.5 94t180 34q51 0 91 -34t66.5 -83t41 -103.5t14.5 -94.5q0 -87 -40.5 -168.5t-105 -144.5t-145 -101.5t-161.5 -38.5q-71 0 -120.5 25t-79.5 68.5t-44 101.5t-14 124zM161 786q0 -39 7 -70t23.5 -52.5t45 -32.5t71.5 -11 q55 0 110 31.5t99 80t71.5 107.5t27.5 114q0 26 -4.5 55t-15.5 54.5t-30.5 42.5t-49.5 17q-26 0 -62.5 -18.5t-76 -48t-78 -67t-69.5 -74.5t-50 -71.5t-19 -56.5z" />
<glyph unicode="&#xbb;" horiz-adv-x="1696" d="M36 1300q60 0 156 -19t203 -51t216 -77t196 -97t142 -109t55 -113q0 -4 -2 -12t-2 -14l-60 -72t-91 -110t-108 -129t-109 -128t-94 -109t-62 -70q-34 -38 -54 -65t-37 -45t-38 -27t-57 -9q-10 0 -27 1t-33 6t-28 15t-12 30q0 36 31 93t79 123t105 136t110 133t94 111 t57 70q0 4 3 12t3 12l-4 12q-2 4 -2 10q-4 10 -22 28t-26 22q-14 8 -54 33t-93 60t-114 73t-115 73t-94 60t-54 33q-34 22 -46 46t-12 64zM610 1390q62 0 157 -19t202 -51t215 -77t195 -96t142 -108t55 -115q0 -4 -2 -12t-2 -12q-18 -24 -59 -73t-92 -110t-108 -129 t-109 -129t-94 -109t-62 -70q-34 -38 -54 -65t-37 -45t-37 -27t-56 -9q-10 0 -27 1t-33 6t-28 15t-12 30q0 36 31 93t79 123t105 136t110 133t94 111t57 70q0 4 3 12t3 12q0 2 -4 14q-2 6 -2 10q-4 8 -22 26t-26 22q-14 8 -54 33t-94 60t-115 73t-114 73t-94 60t-53 33 q-36 22 -47 46t-11 64z" />
<glyph unicode="&#xbc;" horiz-adv-x="1860" d="M38 1309v53.5t8 70.5t25.5 61.5t53.5 26.5q21 0 34.5 -31t22 -78t13 -103t6.5 -106t3.5 -87t4.5 -46q6 -21 18.5 -65.5t29 -101t35 -118t35.5 -117t31 -100t21 -64.5q0 -2 1.5 -8t1.5 -8q0 -15 -11 -24.5t-27.5 -14t-34.5 -6t-32 -1.5q-6 0 -18 1t-15 1q-34 98 -71 206 t-66.5 219t-49 223t-19.5 217zM388 153q3 19 11.5 67.5t17.5 102.5t16.5 101t11.5 67q14 75 40.5 207.5t65.5 285t90 305.5t113.5 270.5t136 179t158.5 30.5q-27 -150 -69 -284t-88.5 -261t-96 -251.5t-95.5 -253.5t-83 -269t-60 -297q-8 -78 -35 -90t-62 0 q-26 10 -46.5 25.5t-25.5 64.5zM604 414q0 56 23 134.5t64 163.5t96 168.5t119.5 150t135.5 107.5t142 41q16 0 43 -0.5t53 -4.5t45 -14.5t19 -29.5q0 -2 -3 -10q-1 -3 -1 -6q-3 -5 -12 -14.5t-19.5 -19.5t-21.5 -18.5t-15 -11.5q0 -10 -1 -36.5t-1 -55.5t-0.5 -56t-0.5 -37 q0 -46 -1 -89t2 -85t10.5 -83.5t24.5 -85.5q4 0 13.5 -0.5t21 -0.5t21 -0.5t14.5 -0.5q21 0 42 0.5t39.5 6.5t33 19t24.5 39q51 -18 61 -43.5t10 -62.5q0 -44 -21 -66t-56 -32t-79 -11.5t-89 -2.5q6 -14 16 -49.5t21 -75t20.5 -75t11.5 -48.5q0 -3 1.5 -16t1.5 -19 q0 -39 -24 -50.5t-66 -11.5q-5 0 -25 1.5t-25 1.5q-3 17 -12.5 57t-20.5 84t-22 83.5t-17 54.5q-4 12 -13.5 31t-23 36.5t-30.5 30t-34 12.5h-495zM781 552h354q0 46 -5 112t-11 130.5t-12.5 118t-7.5 76.5q-51 -33 -107 -83.5t-103 -109.5t-77.5 -122.5t-30.5 -121.5z" />
<glyph unicode="&#xbd;" horiz-adv-x="1762" d="M141 1278v53.5t7.5 72t25 62t51.5 26.5q21 0 34 -31t21.5 -78.5t12.5 -105t6.5 -108t3.5 -88t4 -46.5q6 -22 18.5 -67t28.5 -102t34 -119.5t34.5 -119t30.5 -101.5t21 -66q0 -2 1.5 -7.5t1.5 -8.5q0 -15 -11.5 -24.5t-27.5 -14t-33 -6.5t-31 -2q-6 0 -17.5 1t-14.5 1 q-33 100 -69.5 209.5t-65.5 222t-47.5 226.5t-18.5 221zM302 -5q3 20 8.5 69t11.5 104.5t11.5 103t7.5 67.5q10 76 28 211t44.5 290t61.5 311t77.5 275t92.5 181.5t108 30.5q-19 -152 -47.5 -288.5t-60 -265.5t-65.5 -255.5t-65 -257.5t-56.5 -273.5t-40.5 -302.5 q-6 -78 -24.5 -90.5t-41.5 -0.5q-18 10 -32 26t-18 65zM491 762q0 76 25 148t70.5 129t108 91t139.5 34q32 0 53 -2.5t35.5 -13t24 -30t20.5 -51.5q0 -11 1 -40.5t1.5 -64t1 -65t0.5 -42.5q0 -76 -8.5 -148.5t-19.5 -144t-19.5 -143.5t-8.5 -147h24l320 153q2 0 6.5 0.5 t11.5 0.5t13 1t10 1q12 0 25.5 -1.5t25 -6t19.5 -15t8 -26.5q0 -30 -18 -47.5t-41.5 -27.5t-48.5 -17t-41 -15q-12 -8 -39 -22t-62 -32t-72.5 -38t-72 -38.5t-62 -33t-40.5 -20.5q-3 0 -9 -0.5t-13.5 -0.5t-13.5 -1t-8 -1q-28 0 -43.5 6.5t-22 20t-8 34t-1.5 50.5 q0 79 14 155.5t32 153.5t32 156t14 162q0 10 -0.5 36.5t-0.5 55.5t-1 55.5t-1 36.5q-2 5 -13 16.5t-15 14.5h-16q-44 0 -73.5 -20.5t-51 -51t-39.5 -66.5t-38.5 -66.5t-47 -51t-66.5 -20.5z" />
<glyph unicode="&#xbe;" horiz-adv-x="2106" d="M0 1280v27q0 45 26.5 85t66.5 71t86 48.5t86 17.5q61 0 102 -20t66.5 -54.5t38.5 -79.5t17 -94.5t1.5 -99.5t-5.5 -94q55 -9 102 -26t82.5 -44.5t56 -68t20.5 -98.5q0 -31 -12 -72t-33.5 -85.5t-50.5 -87t-62.5 -76t-70.5 -54.5t-74 -21q-26 0 -36 17.5t-10 37.5 q0 4 2 15t2 13q33 22 73.5 57.5t75 77.5t58 88t23.5 93q0 2 -0.5 4t-0.5 5q-2 2 -2 4q-4 5 -16 17l-25.5 25.5t-26 25t-17.5 16.5q-2 0 -6 1q-2 0 -4.5 0.5t-4.5 0.5q-25 0 -59 -19.5t-65.5 -45t-56 -48t-33.5 -28.5q-2 -1 -6 -1q-3 -1 -8 -1t-7 1q-4 0 -6 1q-6 2 -17 13 t-13 16v13v13q10 33 29.5 81.5t38 101.5t32.5 106t14 96q0 31 -3 61t-13.5 54.5t-31 39t-54.5 14.5q-46 0 -81.5 -25.5t-60 -63t-35 -81t-6.5 -80.5h-57q-1 0 -5 13t-8.5 30t-9 35.5t-6.5 31.5zM509 103q3 20 10 71.5t13.5 109.5t13 108.5t8.5 70.5q11 80 32.5 222t52.5 304 t71.5 326t90 288.5t107.5 190.5t126 32q-22 -159 -55 -302t-70 -278.5t-76.5 -268t-75.5 -270.5t-65.5 -287.5t-47.5 -316.5q-7 -83 -28.5 -95.5t-48.5 -0.5q-21 11 -37.5 27.5t-20.5 68.5zM722 398q0 56 22.5 134.5t62.5 163.5t93.5 168.5t116.5 150t132.5 107.5t138.5 41 q16 0 42 -0.5t51.5 -4.5t44 -14.5t18.5 -29.5q0 -2 -3 -10q-1 -3 -1 -6q-3 -5 -11.5 -14.5t-19 -19.5t-21.5 -18.5t-15 -11.5q0 -10 -0.5 -36.5t-0.5 -55.5t-1 -56t-1 -37q0 -46 -0.5 -89t2 -85t10 -83.5t24.5 -85.5q4 0 13 -0.5t20.5 -0.5t20.5 -0.5t14 -0.5q21 0 41.5 0.5 t38 6.5t31.5 19t24 39q50 -18 60 -43.5t10 -62.5q0 -44 -20.5 -66t-54.5 -32t-77.5 -11.5t-86.5 -2.5q5 -14 15 -49.5t20.5 -75t20 -75t12.5 -48.5q0 -3 1 -16t1 -19q0 -39 -23 -50.5t-64 -11.5q-6 0 -25 1.5t-25 1.5q-3 17 -12 57t-19.5 84t-21.5 83.5t-16 54.5 q-5 12 -14 31t-22.5 36.5t-29.5 30t-33 12.5h-483zM895 536h345q0 46 -5 112t-10.5 130.5t-12 118t-7.5 76.5q-50 -33 -104.5 -83.5t-100.5 -109.5t-75.5 -122.5t-29.5 -121.5z" />
<glyph unicode="&#xbf;" horiz-adv-x="994" d="M304 260q0 78 25.5 141t61.5 118.5t74.5 107t65.5 107.5t33 120.5t-21 145.5q5 6 21 14t34.5 14.5t36 12.5t27.5 6q59 0 94.5 -24.5t55.5 -60.5t26 -76.5t6 -73.5q0 -78 -39.5 -146t-85 -133t-85 -132t-39.5 -146q0 -28 19.5 -52t50.5 -42.5t69.5 -29t72.5 -10.5 q55 0 99 21t82.5 50.5t73 61.5t69.5 53q5 4 35.5 9t40.5 5q0 -86 -29.5 -157t-86.5 -122.5t-143 -80.5t-198 -29q-76 0 -156.5 28.5t-144.5 74t-104.5 104.5t-40.5 121zM309 1600q0 41 13.5 61.5t35.5 28t51.5 7.5h61.5q10 0 41 1t64.5 -2t59.5 -13.5t26 -35.5t-25 -57.5 t-59.5 -60.5t-75 -47.5t-75.5 -19.5q-5 0 -28.5 18.5t-33.5 28.5q-7 6 -15.5 20.5t-18.5 29t-16 27t-6 14.5z" />
<glyph unicode="&#xc0;" horiz-adv-x="1524" d="M41 62q-7 88 3 234t37 323t68 370t97 373t126 335t152 255q14 40 40 46t58 6q52 0 115 -68t130 -181t135 -260t131 -303t118 -312t96 -286t64 -225t23 -131t-17 -68t-59 -32q-26 0 -45 17t-33 41t-25 49t-19 41q-10 26 -37 94t-57 144t-57 143t-39 95q-154 26 -311 50 t-331 46h-24q-80 -344 -141 -544t-102 -285t-65 -70t-31 103zM472 1168q0 -82 53 -120t129 -50t159 -9t143 3q0 88 -29 191t-73 206t-95 199t-93 174q-24 -24 -52 -90t-55 -147t-50 -159t-33 -126q0 -6 -2 -34t-2 -38zM492 2404q8 44 28 57t46 4t56 -37t61 -64t59 -76 t52 -74q2 -4 10 -15t14 -17q24 -28 23 -58t-16 -50t-42 -23t-53 25z" />
<glyph unicode="&#xc1;" horiz-adv-x="1524" d="M41 62q-7 88 3 234t37 323t68 370t97 373t126 335t152 255q14 40 40 46t58 6q52 0 115 -68t130 -181t135 -260t131 -303t118 -312t96 -286t64 -225t23 -131t-17 -68t-59 -32q-26 0 -45 17t-33 41t-25 49t-19 41q-10 26 -37 94t-57 144t-57 143t-39 95q-154 26 -311 50 t-331 46h-24q-80 -344 -141 -544t-102 -285t-65 -70t-31 103zM409 2179q-1 33 23 63q6 8 14 20t10 16q22 36 51 80t60 83t62 69t57 40t45 -4t29 -64l-242 -356q-26 -30 -52 -26t-41 25t-16 54zM472 1168q0 -82 53 -120t129 -50t159 -9t143 3q0 88 -29 191t-73 206t-95 199 t-93 174q-24 -24 -52 -90t-55 -147t-50 -159t-33 -126q0 -6 -2 -34t-2 -38z" />
<glyph unicode="&#xc2;" horiz-adv-x="1524" d="M41 62q-7 88 3 234t37 323t68 370t97 373t126 335t152 255q14 40 40 46t58 6q52 0 115 -68t130 -181t135 -260t131 -303t118 -312t96 -286t64 -225t23 -131t-17 -68t-59 -32q-26 0 -45 17t-33 41t-25 49t-19 41q-10 26 -37 94t-57 144t-57 143t-39 95q-154 26 -311 50 t-331 46h-24q-80 -344 -141 -544t-102 -285t-65 -70t-31 103zM210 2106q0 42 15 106t40 138t60 152t75 144t85 116t89 70q44 -24 91 -71t95 -106t94 -124t88 -125t78 -111t62 -79q-2 -4 -14 -17t-27 -28t-31 -30t-24 -21q-6 -2 -10 -2q-6 -2 -12 -2q-10 0 -16 2q-6 0 -10 2 q-66 44 -101 105t-66 115t-71 92t-114 38q-48 -114 -74 -185t-44 -111t-33 -56t-41 -19t-69 2t-115 5zM472 1168q0 -82 53 -120t129 -50t159 -9t143 3q0 88 -29 191t-73 206t-95 199t-93 174q-24 -24 -52 -90t-55 -147t-50 -159t-33 -126q0 -6 -2 -34t-2 -38z" />
<glyph unicode="&#xc3;" horiz-adv-x="1524" d="M41 62q-7 88 3 234t37 323t68 370t97 373t126 335t152 255q14 40 40 46t58 6q52 0 115 -68t130 -181t135 -260t131 -303t118 -312t96 -286t64 -225t23 -131t-17 -68t-59 -32q-26 0 -45 17t-33 41t-25 49t-19 41q-10 26 -37 94t-57 144t-57 143t-39 95q-154 26 -311 50 t-331 46h-24q-80 -344 -141 -544t-102 -285t-65 -70t-31 103zM134 2188q0 74 13 155t49 149t99 112t163 44q72 0 124 -32t93 -80t77 -105t75 -105t87 -80t114 -32q74 0 109 23t46 59t8 81t-4 88t9 78t48 55h24h22q6 -2 20 -8t29 -13t29 -14t20 -11q0 -8 1 -25t1 -36t1 -36 t1 -23q0 -194 -103 -304t-293 -110q-74 0 -127 29t-94 73t-75 96t-69 96t-76 73t-97 29q-70 0 -101 -27t-42 -69t-11 -94t-6 -100t-27 -87t-73 -57l-50 46q-2 6 -4 27t-4 46l-4 50t-2 39zM472 1168q0 -82 53 -120t129 -50t159 -9t143 3q0 88 -29 191t-73 206t-95 199 t-93 174q-24 -24 -52 -90t-55 -147t-50 -159t-33 -126q0 -6 -2 -34t-2 -38z" />
<glyph unicode="&#xc4;" horiz-adv-x="1524" d="M41 62q-7 88 3 234t37 323t68 370t97 373t126 335t152 255q14 40 40 46t58 6q52 0 115 -68t130 -181t135 -260t131 -303t118 -312t96 -286t64 -225t23 -131t-17 -68t-59 -32q-26 0 -45 17t-33 41t-25 49t-19 41q-10 26 -37 94t-57 144t-57 143t-39 95q-154 26 -311 50 t-331 46h-24q-80 -344 -141 -544t-102 -285t-65 -70t-31 103zM260 2281q-2 33 24 65t94 48q100 0 100 -104q-26 -64 -62 -86t-70 -16t-59 33t-27 60zM472 1168q0 -82 53 -120t129 -50t159 -9t143 3q0 88 -29 191t-73 206t-95 199t-93 174q-24 -24 -52 -90t-55 -147t-50 -159 t-33 -126q0 -6 -2 -34t-2 -38zM764 2281q-2 33 24 65t94 48q100 0 100 -104q-26 -64 -62 -86t-70 -16t-59 33t-27 60z" />
<glyph unicode="&#xc5;" horiz-adv-x="1524" d="M41 62q-7 88 3 234t37 323t68 370t97 373t126 335t152 255q14 40 40 46t58 6q52 0 115 -68t130 -181t135 -260t131 -303t118 -312t96 -286t64 -225t23 -131t-17 -68t-59 -32q-26 0 -45 17t-33 41t-25 49t-19 41q-10 26 -37 94t-57 144t-57 143t-39 95q-154 26 -311 50 t-331 46h-24q-80 -344 -141 -544t-102 -285t-65 -70t-31 103zM328 2188q0 78 39 144t102 114t144 75t163 27q44 0 80 -27t60 -66t37 -83t13 -78q0 -70 -36 -135t-94 -116t-131 -82t-145 -31q-64 0 -108 20t-72 55t-40 82t-12 101zM472 1168q0 -82 53 -120t129 -50t159 -9 t143 3q0 88 -29 191t-73 206t-95 199t-93 174q-24 -24 -52 -90t-55 -147t-50 -159t-33 -126q0 -6 -2 -34t-2 -38zM494 2184q0 -32 2 -55t11 -38t30 -23t61 -8q98 0 158 54t60 144q0 20 -5 47t-15 52t-29 42t-45 17q-36 0 -76 -26t-74 -63t-56 -77t-22 -66z" />
<glyph unicode="&#xc6;" horiz-adv-x="2078" d="M73 72q-7 88 3 234t36 323t68 370t97 373t125 335t154 255q68 50 126 23t110 -111q34 16 70 24t58 12h46q54 -6 128 -15t154 -21t158 -23t143 -21t108 -17t53 -7q18 -2 46 -8t56 -18t53 -29t35 -41q-18 -36 -31 -55t-28 -28t-32 -10t-41 -1q-94 0 -188 7l-188 14l-188 14 t-190 7q0 -42 -10 -121t-15 -168t4 -177t49 -148q78 46 163 49t171 3h96t112 -13t92 -45t38 -94q0 -44 -18 -67t-82 -23q-6 0 -27 7t-45 16t-44 17t-26 8q-2 0 -17 1t-35 1t-39 1t-29 1q-52 0 -99 -7t-83 -28t-57 -59t-21 -98q0 -22 4 -69t12 -106t22 -122t36 -115t50 -86 t66 -34q6 0 25 2t23 2q72 50 149 111t160 113t171 88t184 36v-108q0 -10 -43 -49t-112 -93t-156 -114t-174 -110t-166 -83t-133 -33q-82 0 -144 77t-108 203q0 -56 -2 -105t-6 -89q-52 0 -85 10t-49 44q-8 18 -7 70t6 121t12 147t12 148t5 122t-6 70q-78 12 -118 26t-74 28 t-80 27t-132 25h-22q-80 -344 -141 -544t-103 -285t-65 -70t-30 103zM460 1135q2 -49 40 -80t103 -47t145 -16q0 88 5 193t3 210t-19 204t-59 177q-24 -24 -49 -91t-49 -148t-44 -160t-30 -127q-48 -66 -46 -115z" />
<glyph unicode="&#xc7;" horiz-adv-x="1430" d="M44 762q0 76 21 165t59 179t91 175t120 151t145 105t164 39q72 0 134 -19t107 -57t70 -95t25 -133q-48 0 -78 25t-56 56t-56 56t-76 25q-70 0 -133 -36t-117 -96t-96 -135t-72 -152t-46 -150t-16 -127q0 -116 34 -217t99 -175t160 -117t217 -43q78 0 148 24t136 52 t130 52t128 24q10 0 26 -1t31 -6t26 -15t11 -30q0 -80 -61 -135t-146 -90t-176 -50t-149 -15q-168 0 -315 54t-255 154t-171 241t-63 317zM464 -30q-6 88 12 129t46 48t59 -13t54 -50t31 -63t-10 -55q0 -70 25 -105t65 -48t92 -11t107 6t107 3t92 -20t65 -63t25 -126 q0 -54 -53 -133t-132 -154t-170 -128t-165 -53q-46 0 -61 33t-15 69q34 24 85 56t104 66t101 71t75 71t28 67t-41 59q-106 0 -201 -5t-167 20t-115 99t-43 230z" />
<glyph unicode="&#xc8;" horiz-adv-x="1476" d="M-4 1828q0 32 24 54t56 37t64 22t50 11h26h22q54 -6 136 -15t174 -19t186 -20t171 -19t129 -15t62 -6q18 -2 46 -8t56 -18t53 -29t35 -41q-18 -36 -31 -55t-28 -28t-32 -10t-41 -1q-94 0 -188 7l-188 14l-188 14t-190 7q0 -42 -10 -121t-15 -168t4 -177t49 -148 q78 46 163 48t171 2h96t112 -13t92 -44t38 -93q0 -44 -18 -67t-82 -23q-6 0 -27 7t-45 16t-44 16t-26 7q-2 0 -17 1t-35 1t-39 1t-29 1q-52 0 -99 -7t-83 -27t-57 -58t-21 -98q0 -20 4 -68t12 -107t22 -122t36 -115t50 -86t66 -34q6 0 24 2t22 2q74 50 151 110t159 113 t171 89t185 36v-108q0 -10 -43 -50t-113 -93t-157 -113t-174 -110t-166 -83t-131 -33q-76 0 -135 68t-105 180t-78 258t-55 302t-37 311t-23 286t-13 227t-6 134q-10 0 -31 6t-44 13t-43 15t-26 14q-2 4 -2 8q-2 4 -2 10zM450 2382q8 44 28 57t46 4t56 -37t61 -64t59 -76 t52 -74q2 -4 10 -15t14 -17q24 -28 23 -58t-16 -50t-42 -23t-53 25z" />
<glyph unicode="&#xc9;" horiz-adv-x="1476" d="M-4 1828q0 32 24 54t56 37t64 22t50 11h26h22q54 -6 136 -15t174 -19t186 -20t171 -19t129 -15t62 -6q18 -2 46 -8t56 -18t53 -29t35 -41q-18 -36 -31 -55t-28 -28t-32 -10t-41 -1q-94 0 -188 7l-188 14l-188 14t-190 7q0 -42 -10 -121t-15 -168t4 -177t49 -148 q78 46 163 48t171 2h96t112 -13t92 -44t38 -93q0 -44 -18 -67t-82 -23q-6 0 -27 7t-45 16t-44 16t-26 7q-2 0 -17 1t-35 1t-39 1t-29 1q-52 0 -99 -7t-83 -27t-57 -58t-21 -98q0 -20 4 -68t12 -107t22 -122t36 -115t50 -86t66 -34q6 0 24 2t22 2q74 50 151 110t159 113 t171 89t185 36v-108q0 -10 -43 -50t-113 -93t-157 -113t-174 -110t-166 -83t-131 -33q-76 0 -135 68t-105 180t-78 258t-55 302t-37 311t-23 286t-13 227t-6 134q-10 0 -31 6t-44 13t-43 15t-26 14q-2 4 -2 8q-2 4 -2 10zM489 2085q-1 33 23 63q6 8 14 20t10 16q22 36 51 80 t60 83t62 69t57 40t45 -4t29 -64l-242 -356q-26 -30 -52 -26t-41 25t-16 54z" />
<glyph unicode="&#xca;" horiz-adv-x="1476" d="M-4 1828q0 32 24 54t56 37t64 22t50 11h26h22q54 -6 136 -15t174 -19t186 -20t171 -19t129 -15t62 -6q18 -2 46 -8t56 -18t53 -29t35 -41q-18 -36 -31 -55t-28 -28t-32 -10t-41 -1q-94 0 -188 7l-188 14l-188 14t-190 7q0 -42 -10 -121t-15 -168t4 -177t49 -148 q78 46 163 48t171 2h96t112 -13t92 -44t38 -93q0 -44 -18 -67t-82 -23q-6 0 -27 7t-45 16t-44 16t-26 7q-2 0 -17 1t-35 1t-39 1t-29 1q-52 0 -99 -7t-83 -27t-57 -58t-21 -98q0 -20 4 -68t12 -107t22 -122t36 -115t50 -86t66 -34q6 0 24 2t22 2q74 50 151 110t159 113 t171 89t185 36v-108q0 -10 -43 -50t-113 -93t-157 -113t-174 -110t-166 -83t-131 -33q-76 0 -135 68t-105 180t-78 258t-55 302t-37 311t-23 286t-13 227t-6 134q-10 0 -31 6t-44 13t-43 15t-26 14q-2 4 -2 8q-2 4 -2 10zM312 2074q0 42 15 106t40 138t60 152t75 144t85 116 t89 70q44 -24 91 -71t95 -106t94 -124t88 -125t78 -111t62 -79q-2 -4 -14 -17t-27 -28t-31 -30t-24 -21q-6 -2 -10 -2q-6 -2 -12 -2q-10 0 -16 2q-6 0 -10 2q-66 44 -101 105t-66 115t-71 92t-114 38q-48 -114 -74 -185t-44 -111t-33 -56t-41 -19t-69 2t-115 5z" />
<glyph unicode="&#xcb;" horiz-adv-x="1476" d="M-4 1828q0 32 24 54t56 37t64 22t50 11h26h22q54 -6 136 -15t174 -19t186 -20t171 -19t129 -15t62 -6q18 -2 46 -8t56 -18t53 -29t35 -41q-18 -36 -31 -55t-28 -28t-32 -10t-41 -1q-94 0 -188 7l-188 14l-188 14t-190 7q0 -42 -10 -121t-15 -168t4 -177t49 -148 q78 46 163 48t171 2h96t112 -13t92 -44t38 -93q0 -44 -18 -67t-82 -23q-6 0 -27 7t-45 16t-44 16t-26 7q-2 0 -17 1t-35 1t-39 1t-29 1q-52 0 -99 -7t-83 -27t-57 -58t-21 -98q0 -20 4 -68t12 -107t22 -122t36 -115t50 -86t66 -34q6 0 24 2t22 2q74 50 151 110t159 113 t171 89t185 36v-108q0 -10 -43 -50t-113 -93t-157 -113t-174 -110t-166 -83t-131 -33q-76 0 -135 68t-105 180t-78 258t-55 302t-37 311t-23 286t-13 227t-6 134q-10 0 -31 6t-44 13t-43 15t-26 14q-2 4 -2 8q-2 4 -2 10zM340 2155q-2 33 24 65t94 48q100 0 100 -104 q-26 -64 -62 -86t-70 -16t-59 33t-27 60zM844 2155q-2 33 24 65t94 48q100 0 100 -104q-26 -64 -62 -86t-70 -16t-59 33t-27 60z" />
<glyph unicode="&#xcc;" horiz-adv-x="1714" d="M28 1404q0 18 1 51t7 68t20 63t40 34h1222q-2 -70 -29 -108t-70 -58t-96 -26t-107 -12t-105 -17t-88 -39t-56 -78t-9 -136q0 -46 7 -123t22 -166t40 -179t61 -164t84 -120t112 -46q44 -4 115 0t142 6t134 -3t92 -27t13 -65t-98 -117q-142 -52 -287 -71t-292 -21t-294 4 t-291 6q-82 100 -98 153t12 75t89 23t132 -5t142 -9t119 13q0 116 -29 254t-63 283t-65 288t-33 269h-496zM662 2112q8 44 28 57t46 4t56 -37t61 -64t59 -76t52 -74q2 -4 10 -15t14 -17q24 -28 23 -58t-16 -50t-42 -23t-53 25z" />
<glyph unicode="&#xcd;" horiz-adv-x="1714" d="M28 1404q0 18 1 51t7 68t20 63t40 34h1222q-2 -70 -29 -108t-70 -58t-96 -26t-107 -12t-105 -17t-88 -39t-56 -78t-9 -136q0 -46 7 -123t22 -166t40 -179t61 -164t84 -120t112 -46q44 -4 115 0t142 6t134 -3t92 -27t13 -65t-98 -117q-142 -52 -287 -71t-292 -21t-294 4 t-291 6q-82 100 -98 153t12 75t89 23t132 -5t142 -9t119 13q0 116 -29 254t-63 283t-65 288t-33 269h-496zM701 1771q-1 33 23 63q6 8 14 20t10 16q22 36 51 80t60 83t62 69t57 40t45 -4t29 -64l-242 -356q-26 -30 -52 -26t-41 25t-16 54z" />
<glyph unicode="&#xce;" horiz-adv-x="1714" d="M28 1404q0 18 1 51t7 68t20 63t40 34h1222q-2 -70 -29 -108t-70 -58t-96 -26t-107 -12t-105 -17t-88 -39t-56 -78t-9 -136q0 -46 7 -123t22 -166t40 -179t61 -164t84 -120t112 -46q44 -4 115 0t142 6t134 -3t92 -27t13 -65t-98 -117q-142 -52 -287 -71t-292 -21t-294 4 t-291 6q-82 100 -98 153t12 75t89 23t132 -5t142 -9t119 13q0 116 -29 254t-63 283t-65 288t-33 269h-496zM420 1886q0 42 15 106t40 138t60 152t75 144t85 116t89 70q44 -24 91 -71t95 -106t94 -124t88 -125t78 -111t62 -79q-2 -4 -14 -17t-27 -28t-31 -30t-24 -21 q-6 -2 -10 -2q-6 -2 -12 -2q-10 0 -16 2q-6 0 -10 2q-66 44 -101 105t-66 115t-71 92t-114 38q-48 -114 -74 -185t-44 -111t-33 -56t-41 -19t-69 2t-115 5z" />
<glyph unicode="&#xcf;" horiz-adv-x="1714" d="M28 1404q0 18 1 51t7 68t20 63t40 34h1222q-2 -70 -29 -108t-70 -58t-96 -26t-107 -12t-105 -17t-88 -39t-56 -78t-9 -136q0 -46 7 -123t22 -166t40 -179t61 -164t84 -120t112 -46q44 -4 115 0t142 6t134 -3t92 -27t13 -65t-98 -117q-142 -52 -287 -71t-292 -21t-294 4 t-291 6q-82 100 -98 153t12 75t89 23t132 -5t142 -9t119 13q0 116 -29 254t-63 283t-65 288t-33 269h-496zM386 1923q-2 33 24 65t94 48q100 0 100 -104q-26 -64 -62 -86t-70 -16t-59 33t-27 60zM890 1923q-2 33 24 65t94 48q100 0 100 -104q-26 -64 -62 -86t-70 -16t-59 33 t-27 60z" />
<glyph unicode="&#xd0;" horiz-adv-x="1132" d="M0 860q54 -16 124 -5t143 25t140 20t113 -20q46 -24 27 -46t-75 -41t-134 -33t-150 -22t-121 -10t-47 4q0 2 -3 22t-7 43t-7 42t-3 21zM36 1506q0 94 55 154t137 94t175 47t169 13q144 0 243 -57t160 -150t88 -215t27 -250q0 -84 -18 -198t-53 -236t-87 -241t-122 -213 t-156 -152t-188 -58q-18 0 -47 55t-63 146t-70 210t-72 247t-68 256t-57 237t-39 192t-14 119zM224 1380q0 -72 10 -163t31 -188t53 -196t74 -186t96 -157t120 -110q74 106 129 191t91 169t54 180t18 222q0 92 -12 178t-48 154t-103 109t-175 41q-90 0 -173 -27t-161 -73 q0 -6 -1 -26t-1 -43t-1 -45t-1 -30z" />
<glyph unicode="&#xd1;" horiz-adv-x="1524" d="M-10 2010q0 74 13 155t49 149t99 112t163 44q72 0 124 -32t93 -80t77 -105t75 -105t87 -80t114 -32q74 0 109 23t46 59t8 81t-4 88t9 78t48 55h24h22q6 -2 20 -8t29 -13t29 -14t20 -11q0 -8 1 -25t1 -36t1 -36t1 -23q0 -194 -103 -304t-293 -110q-74 0 -127 29t-94 73 t-75 96t-69 96t-76 73t-97 29q-70 0 -101 -27t-42 -69t-11 -94t-6 -100t-27 -87t-73 -57l-50 46q-2 6 -4 27t-4 46l-4 50t-2 39zM-8 840q0 20 5 68t13 102t16 100t14 64q8 2 25 3t35 3t35 3t23 1q108 0 203 -42t182 -107t169 -145t165 -155t170 -137t185 -92q0 10 1 34t1 51 t1 50t1 33q0 140 -18 274t-40 267t-40 268t-18 277q16 0 40 -1t48 -7t44 -18t26 -36q10 -162 41 -323t64 -322t59 -322t26 -319q0 -28 -1 -62t-9 -64t-26 -50t-54 -20q-114 0 -212 53t-190 131t-180 171t-180 171t-191 131t-213 53q0 -124 18 -239t39 -228t39 -225t18 -228 q0 -42 -30 -58t-66 -16q-28 0 -54 6t-40 46q-8 36 -23 102t-31 146t-32 168t-29 171t-21 153t-8 116z" />
<glyph unicode="&#xd2;" horiz-adv-x="1430" d="M0 618q0 114 30 230t84 223t132 199t173 160t206 107t233 39t212 -48t150 -128t89 -183t29 -211q0 -186 -56 -367t-165 -324t-270 -231t-369 -88q-124 0 -214 56t-149 146t-87 201t-28 219zM190 568q0 -60 19 -126t55 -122t90 -93t124 -37q148 0 271 67t211 175t137 241 t49 265q0 76 -4 156t-28 145t-77 106t-151 41q-30 0 -82 -2t-104 -12t-90 -30t-38 -56q0 -4 7 -18t16 -30t16 -30t7 -18q0 -6 -18 -25t-28 -23q-112 -28 -186 -72t-118 -112t-61 -164t-17 -226zM518 2112q8 44 28 57t46 4t56 -37t61 -64t59 -76t52 -74q2 -4 10 -15t14 -17 q24 -28 23 -58t-16 -50t-42 -23t-53 25z" />
<glyph unicode="&#xd3;" horiz-adv-x="1430" d="M0 618q0 114 30 230t84 223t132 199t173 160t206 107t233 39t212 -48t150 -128t89 -183t29 -211q0 -186 -56 -367t-165 -324t-270 -231t-369 -88q-124 0 -214 56t-149 146t-87 201t-28 219zM190 568q0 -60 19 -126t55 -122t90 -93t124 -37q148 0 271 67t211 175t137 241 t49 265q0 76 -4 156t-28 145t-77 106t-151 41q-30 0 -82 -2t-104 -12t-90 -30t-38 -56q0 -4 7 -18t16 -30t16 -30t7 -18q0 -6 -18 -25t-28 -23q-112 -28 -186 -72t-118 -112t-61 -164t-17 -226zM559 1771q-1 33 23 63q6 8 14 20t10 16q22 36 51 80t60 83t62 69t57 40t45 -4 t29 -64l-242 -356q-26 -30 -52 -26t-41 25t-16 54z" />
<glyph unicode="&#xd4;" horiz-adv-x="1430" d="M0 618q0 114 30 230t84 223t132 199t173 160t206 107t233 39t212 -48t150 -128t89 -183t29 -211q0 -186 -56 -367t-165 -324t-270 -231t-369 -88q-124 0 -214 56t-149 146t-87 201t-28 219zM190 568q0 -60 19 -126t55 -122t90 -93t124 -37q148 0 271 67t211 175t137 241 t49 265q0 76 -4 156t-28 145t-77 106t-151 41q-30 0 -82 -2t-104 -12t-90 -30t-38 -56q0 -4 7 -18t16 -30t16 -30t7 -18q0 -6 -18 -25t-28 -23q-112 -28 -186 -72t-118 -112t-61 -164t-17 -226zM280 1886q0 42 15 106t40 138t60 152t75 144t85 116t89 70q44 -24 91 -71 t95 -106t94 -124t88 -125t78 -111t62 -79q-2 -4 -14 -17t-27 -28t-31 -30t-24 -21q-6 -2 -10 -2q-6 -2 -12 -2q-10 0 -16 2q-6 0 -10 2q-66 44 -101 105t-66 115t-71 92t-114 38q-48 -114 -74 -185t-44 -111t-33 -56t-41 -19t-69 2t-115 5z" />
<glyph unicode="&#xd5;" horiz-adv-x="1430" d="M0 618q0 114 30 230t84 223t132 199t173 160t206 107t233 39t212 -48t150 -128t89 -183t29 -211q0 -186 -56 -367t-165 -324t-270 -231t-369 -88q-124 0 -214 56t-149 146t-87 201t-28 219zM108 1896q0 74 13 155t49 149t99 112t163 44q72 0 124 -32t93 -80t77 -105 t75 -105t87 -80t114 -32q74 0 109 23t46 59t8 81t-4 88t9 78t48 55h24h22q6 -2 20 -8t29 -13t29 -14t20 -11q0 -8 1 -25t1 -36t1 -36t1 -23q0 -194 -103 -304t-293 -110q-74 0 -127 29t-94 73t-75 96t-69 96t-76 73t-97 29q-70 0 -101 -27t-42 -69t-11 -94t-6 -100t-27 -87 t-73 -57l-50 46q-2 6 -4 27t-4 46l-4 50t-2 39zM190 568q0 -60 19 -126t55 -122t90 -93t124 -37q148 0 271 67t211 175t137 241t49 265q0 76 -4 156t-28 145t-77 106t-151 41q-30 0 -82 -2t-104 -12t-90 -30t-38 -56q0 -4 7 -18t16 -30t16 -30t7 -18q0 -6 -18 -25t-28 -23 q-112 -28 -186 -72t-118 -112t-61 -164t-17 -226z" />
<glyph unicode="&#xd6;" horiz-adv-x="1430" d="M0 618q0 114 30 230t84 223t132 199t173 160t206 107t233 39t212 -48t150 -128t89 -183t29 -211q0 -186 -56 -367t-165 -324t-270 -231t-369 -88q-124 0 -214 56t-149 146t-87 201t-28 219zM190 568q0 -60 19 -126t55 -122t90 -93t124 -37q148 0 271 67t211 175t137 241 t49 265q0 76 -4 156t-28 145t-77 106t-151 41q-30 0 -82 -2t-104 -12t-90 -30t-38 -56q0 -4 7 -18t16 -30t16 -30t7 -18q0 -6 -18 -25t-28 -23q-112 -28 -186 -72t-118 -112t-61 -164t-17 -226zM432 2061q-2 33 24 65t94 48q100 0 100 -104q-26 -64 -62 -86t-70 -16t-59 33 t-27 60zM936 2061q-2 33 24 65t94 48q100 0 100 -104q-26 -64 -62 -86t-70 -16t-59 33t-27 60z" />
<glyph unicode="&#xd7;" horiz-adv-x="1080" d="M234 1030v4q0 6 2 8q6 22 29 24t49 -8q2 0 14 -4q6 -2 10 -4l162 -188q68 42 109 65t63 32t32 9t14 -2q20 -4 48 -14t28 -34q-60 -26 -108 -56t-100 -88q24 -24 55 -63t64 -85t62 -93t47 -85t20 -63t-20 -25q-28 -14 -38 -21t-16 -2t-14 26t-31 64t-67 109t-120 164 l-92 -272q-2 -2 -20 -5l-30 -5q-4 0 -8 2h-6q-2 0 -2 2q-2 0 -4 1t-6 1t-6 2q-6 8 -15 19t-9 13l90 312z" />
<glyph unicode="&#xd8;" horiz-adv-x="1430" d="M0 618q0 114 30 230t84 223t132 199t173 160t206 107t233 39t212 -48t150 -128t89 -183t29 -211q0 -186 -56 -367t-165 -324t-270 -231t-369 -88q-124 0 -214 56t-149 146t-87 201t-28 219zM190 568q0 -60 19 -126t55 -122t90 -93t124 -37q148 0 271 67t211 175t137 241 t49 265q0 76 -4 156t-28 145t-77 106t-151 41q-30 0 -82 -2t-104 -12t-90 -30t-38 -56q0 -4 7 -18t16 -30t16 -30t7 -18q0 -6 -18 -25t-28 -23q-112 -28 -186 -72t-118 -112t-61 -164t-17 -226zM382 -38q4 20 12.5 70t17 105.5t16 104t10.5 68.5q14 77 40.5 213.5t64.5 293 t88 314t111.5 278t133.5 184t155 30.5q-27 -154 -67.5 -291.5t-86.5 -268t-94.5 -258.5t-93.5 -260.5t-81.5 -276.5t-58.5 -306q-9 -79 -35 -91.5t-60 0.5q-26 10 -46.5 26t-25.5 65z" />
<glyph unicode="&#xd9;" horiz-adv-x="1380" d="M0 1430l96 94q36 -26 58 -65t36 -79q2 -84 2 -202t8 -245t33 -252t77 -225t140 -161t222 -61q122 0 210 57t146 146t86 199t28 216q0 202 -20 412t-74 404q16 40 41 46t53 6q58 0 91 -47t50 -119t20 -157t0 -162t-8 -136t-5 -75q0 -116 -6 -234t-27 -227t-62 -204 t-110 -165t-171 -110t-246 -40q-178 0 -294 69t-186 184t-104 261t-49 300t-20 303t-15 269zM494 2112q8 44 28 57t46 4t56 -37t61 -64t59 -76t52 -74q2 -4 10 -15t14 -17q24 -28 23 -58t-16 -50t-42 -23t-53 25z" />
<glyph unicode="&#xda;" horiz-adv-x="1380" d="M0 1430l96 94q36 -26 58 -65t36 -79q2 -84 2 -202t8 -245t33 -252t77 -225t140 -161t222 -61q122 0 210 57t146 146t86 199t28 216q0 202 -20 412t-74 404q16 40 41 46t53 6q58 0 91 -47t50 -119t20 -157t0 -162t-8 -136t-5 -75q0 -116 -6 -234t-27 -227t-62 -204 t-110 -165t-171 -110t-246 -40q-178 0 -294 69t-186 184t-104 261t-49 300t-20 303t-15 269zM535 1771q-1 33 23 63q6 8 14 20t10 16q22 36 51 80t60 83t62 69t57 40t45 -4t29 -64l-242 -356q-26 -30 -52 -26t-41 25t-16 54z" />
<glyph unicode="&#xdb;" horiz-adv-x="1380" d="M0 1430l96 94q36 -26 58 -65t36 -79q2 -84 2 -202t8 -245t33 -252t77 -225t140 -161t222 -61q122 0 210 57t146 146t86 199t28 216q0 202 -20 412t-74 404q16 40 41 46t53 6q58 0 91 -47t50 -119t20 -157t0 -162t-8 -136t-5 -75q0 -116 -6 -234t-27 -227t-62 -204 t-110 -165t-171 -110t-246 -40q-178 0 -294 69t-186 184t-104 261t-49 300t-20 303t-15 269zM254 1886q0 42 15 106t40 138t60 152t75 144t85 116t89 70q44 -24 91 -71t95 -106t94 -124t88 -125t78 -111t62 -79q-2 -4 -14 -17t-27 -28t-31 -30t-24 -21q-6 -2 -10 -2 q-6 -2 -12 -2q-10 0 -16 2q-6 0 -10 2q-66 44 -101 105t-66 115t-71 92t-114 38q-48 -114 -74 -185t-44 -111t-33 -56t-41 -19t-69 2t-115 5z" />
<glyph unicode="&#xdc;" horiz-adv-x="1380" d="M0 1430l96 94q36 -26 58 -65t36 -79q2 -84 2 -202t8 -245t33 -252t77 -225t140 -161t222 -61q122 0 210 57t146 146t86 199t28 216q0 202 -20 412t-74 404q16 40 41 46t53 6q58 0 91 -47t50 -119t20 -157t0 -162t-8 -136t-5 -75q0 -116 -6 -234t-27 -227t-62 -204 t-110 -165t-171 -110t-246 -40q-178 0 -294 69t-186 184t-104 261t-49 300t-20 303t-15 269zM408 2061q-2 33 24 65t94 48q100 0 100 -104q-26 -64 -62 -86t-70 -16t-59 33t-27 60zM912 2061q-2 33 24 65t94 48q100 0 100 -104q-26 -64 -62 -86t-70 -16t-59 33t-27 60z" />
<glyph unicode="&#xdd;" horiz-adv-x="1430" d="M26 2136q0 10 1 26t5 30t15 24t29 10q54 0 95 -39t74 -103t62 -146t59 -167t63 -167t74 -146t94 -103t123 -39q4 0 12 2t12 2q62 56 112 148t93 199t83 220t83 211t91 171t110 101l94 -98q18 -16 6 -71t-42 -136t-74 -180t-93 -205l-98 -212t-88 -199t-63 -167t-24 -116 q0 -132 38 -257t83 -248t83 -247t38 -252v-46t-8 -52t-29 -37t-61 -3q-82 120 -145 272t-107 317t-65 333t-17 318q-86 18 -173 80t-166 151t-149 198t-121 220t-80 216t-29 187zM603 2419q-1 33 23 63q6 8 14 20t10 16q22 36 51 80t60 83t62 69t57 40t45 -4t29 -64 l-242 -356q-26 -30 -52 -26t-41 25t-16 54z" />
<glyph unicode="&#xde;" horiz-adv-x="1282" d="M78 1762q22 42 71 80t101 38q22 -118 30 -207t10 -161t1 -135t3 -129t18 -142t44 -176q4 54 5 117t11 128t33 126t67 107t114 73t176 25q96 0 173 -36t129 -97t80 -143t28 -172q0 -122 -61 -239t-159 -210t-221 -150t-249 -57q-8 0 -9 -28t0 -69t4 -90t5 -90t1 -68 t-7 -25q-10 2 -43 0t-70 -3t-69 -2t-40 5l-58 590q0 8 -5 60t-13 131t-19 178t-22 201t-22 201t-19 178t-13 131t-5 60zM500 644q4 0 22 -3t24 -3q60 0 138 37t150 94t126 125t64 130q6 38 -16 87t-58 93t-81 75t-83 31q-44 -22 -92 -55t-89 -103t-70 -190t-35 -318z" />
<glyph unicode="&#xdf;" horiz-adv-x="1342" d="M74 1230q-2 150 1 263t9 165q32 130 105 201t163 94t188 3t182 -73t144 -133t73 -177t-30 -207t-163 -220q82 -28 170 -58t162 -73t121 -103t47 -150q0 -60 -29 -126t-79 -134t-114 -135t-133 -125t-139 -105t-130 -77l-40 286l80 55t101 73t106 82t96 81t69 72t26 53 q0 96 -55 157t-139 79t-184 -10t-190 -106l-8 232q104 80 163 178t75 191t-8 169t-85 111t-156 18t-219 -109q14 -98 10 -215t-10 -256t-7 -302t15 -350t58 -400t124 -453l-202 -48q-26 4 -48 80t-40 202t-32 288t-24 337t-16 350t-8 325z" />
<glyph unicode="&#xe0;" horiz-adv-x="1380" d="M44 482q0 84 23 176t66 182t103 171t135 143t161 99t182 37q160 -16 251 -80t138 -162t64 -220t27 -251t26 -257t64 -238q-28 -74 -54 -104t-57 -9t-72 98t-101 219q-84 -58 -145 -103t-119 -76t-124 -47t-160 -16q-208 0 -308 110t-100 328zM234 478q0 -126 48 -185 t170 -59q90 0 173 32t146 89t101 137t38 176q0 40 2 113t-9 144t-42 123t-95 52q-114 0 -212 -59t-169 -150t-111 -201t-40 -212zM484 1776q8 44 28 57t46 4t56 -37t61 -64t59 -76t52 -74q2 -4 10 -15t14 -17q24 -28 23 -58t-16 -50t-42 -23t-53 25z" />
<glyph unicode="&#xe1;" horiz-adv-x="1380" d="M44 482q0 84 23 176t66 182t103 171t135 143t161 99t182 37q160 -16 251 -80t138 -162t64 -220t27 -251t26 -257t64 -238q-28 -74 -54 -104t-57 -9t-72 98t-101 219q-84 -58 -145 -103t-119 -76t-124 -47t-160 -16q-208 0 -308 110t-100 328zM234 478q0 -126 48 -185 t170 -59q90 0 173 32t146 89t101 137t38 176q0 40 2 113t-9 144t-42 123t-95 52q-114 0 -212 -59t-169 -150t-111 -201t-40 -212zM525 1539q-1 33 23 63q6 8 14 20t10 16q22 36 51 80t60 83t62 69t57 40t45 -4t29 -64l-242 -356q-26 -30 -52 -26t-41 25t-16 54z" />
<glyph unicode="&#xe2;" horiz-adv-x="1380" d="M44 482q0 84 23 176t66 182t103 171t135 143t161 99t182 37q160 -16 251 -80t138 -162t64 -220t27 -251t26 -257t64 -238q-28 -74 -54 -104t-57 -9t-72 98t-101 219q-84 -58 -145 -103t-119 -76t-124 -47t-160 -16q-208 0 -308 110t-100 328zM234 478q0 -126 48 -185 t170 -59q90 0 173 32t146 89t101 137t38 176q0 40 2 113t-9 144t-42 123t-95 52q-114 0 -212 -59t-169 -150t-111 -201t-40 -212zM254 1456q0 42 15 106t40 138t60 152t75 144t85 116t89 70q44 -24 91 -71t95 -106t94 -124t88 -125t78 -111t62 -79q-2 -4 -14 -17t-27 -28 t-31 -30t-24 -21q-6 -2 -10 -2q-6 -2 -12 -2q-10 0 -16 2q-6 0 -10 2q-66 44 -101 105t-66 115t-71 92t-114 38q-48 -114 -74 -185t-44 -111t-33 -56t-41 -19t-69 2t-115 5z" />
<glyph unicode="&#xe3;" horiz-adv-x="1380" d="M44 482q0 84 23 176t66 182t103 171t135 143t161 99t182 37q160 -16 251 -80t138 -162t64 -220t27 -251t26 -257t64 -238q-28 -74 -54 -104t-57 -9t-72 98t-101 219q-84 -58 -145 -103t-119 -76t-124 -47t-160 -16q-208 0 -308 110t-100 328zM82 1516q0 74 13 155t49 149 t99 112t163 44q72 0 124 -32t93 -80t77 -105t75 -105t87 -80t114 -32q74 0 109 23t46 59t8 81t-4 88t9 78t48 55h24h22q6 -2 20 -8t29 -13t29 -14t20 -11q0 -8 1 -25t1 -36t1 -36t1 -23q0 -194 -103 -304t-293 -110q-74 0 -127 29t-94 73t-75 96t-69 96t-76 73t-97 29 q-70 0 -101 -27t-42 -69t-11 -94t-6 -100t-27 -87t-73 -57l-50 46q-2 6 -4 27t-4 46l-4 50t-2 39zM234 478q0 -126 48 -185t170 -59q90 0 173 32t146 89t101 137t38 176q0 40 2 113t-9 144t-42 123t-95 52q-114 0 -212 -59t-169 -150t-111 -201t-40 -212z" />
<glyph unicode="&#xe4;" horiz-adv-x="1380" d="M44 482q0 84 23 176t66 182t103 171t135 143t161 99t182 37q160 -16 251 -80t138 -162t64 -220t27 -251t26 -257t64 -238q-28 -74 -54 -104t-57 -9t-72 98t-101 219q-84 -58 -145 -103t-119 -76t-124 -47t-160 -16q-208 0 -308 110t-100 328zM234 478q0 -126 48 -185 t170 -59q90 0 173 32t146 89t101 137t38 176q0 40 2 113t-9 144t-42 123t-95 52q-114 0 -212 -59t-169 -150t-111 -201t-40 -212zM408 1631q-2 33 24 65t94 48q100 0 100 -104q-26 -64 -62 -86t-70 -16t-59 33t-27 60zM912 1631q-2 33 24 65t94 48q100 0 100 -104 q-26 -64 -62 -86t-70 -16t-59 33t-27 60z" />
<glyph unicode="&#xe5;" horiz-adv-x="1380" d="M44 482q0 84 23 176t66 182t103 171t135 143t161 99t182 37q160 -16 251 -80t138 -162t64 -220t27 -251t26 -257t64 -238q-28 -74 -54 -104t-57 -9t-72 98t-101 219q-84 -58 -145 -103t-119 -76t-124 -47t-160 -16q-208 0 -308 110t-100 328zM234 478q0 -126 48 -185 t170 -59q90 0 173 32t146 89t101 137t38 176q0 40 2 113t-9 144t-42 123t-95 52q-114 0 -212 -59t-169 -150t-111 -201t-40 -212zM360 1508q0 78 39 144t102 114t144 75t163 27q44 0 80 -27t60 -66t37 -83t13 -78q0 -70 -36 -135t-94 -116t-131 -82t-145 -31q-64 0 -108 20 t-72 55t-40 82t-12 101zM526 1504q0 -32 2 -55t11 -38t30 -23t61 -8q98 0 158 54t60 144q0 20 -5 47t-15 52t-29 42t-45 17q-36 0 -76 -26t-74 -63t-56 -77t-22 -66z" />
<glyph unicode="&#xe6;" horiz-adv-x="2234" d="M44 482q0 84 23 176t66 182t103 171t135 143t161 99t182 37q106 -10 181 -43t126 -83t81 -116t48 -142q26 76 69 142t102 116t137 78t174 28q82 0 145 -30t105 -79t63 -115t21 -138q0 -112 -53 -219t-141 -188t-200 -122t-230 -19q2 -64 43 -103t99 -59t121 -26t109 -6 q50 0 96 9t90 20t89 20t95 9q20 0 41 -2t39 -10t29 -24t11 -42q0 -42 -31 -70t-79 -47t-106 -30t-113 -16t-100 -6t-67 -1q-144 0 -258 43t-190 127q8 -32 24 -64q-28 -74 -54 -104t-57 -9t-72 98t-101 219q-84 -58 -145 -103t-119 -76t-124 -47t-160 -16q-208 0 -308 110 t-100 328zM234 478q0 -126 48 -185t170 -59q90 0 173 32t146 89t101 137t38 176q0 40 2 113t-9 144t-42 123t-95 52q-114 0 -212 -59t-169 -150t-111 -201t-40 -212zM1338 742q0 -40 4 -68t17 -46t37 -26t64 -8q58 0 114 21t101 58t73 89t28 112q0 32 -7 68t-23 66t-45 49 t-73 19q-68 0 -122 -30t-91 -78t-57 -107t-20 -119z" />
<glyph unicode="&#xe7;" horiz-adv-x="1048" d="M0 668q0 94 41 196t110 186t159 139t190 55q52 0 103 -18t92 -51t66 -80t25 -103q-40 0 -72 9t-63 21t-61 21t-66 9q-90 0 -147 -46t-90 -115t-45 -148t-12 -147q0 -12 1 -43t2 -65t2 -65t3 -43q24 -54 47 -83t50 -43t58 -17t73 -3q58 0 102 17t81 42t71 55t70 55t80 42 t100 17q0 -96 -32 -176t-90 -139t-137 -95t-173 -48q10 -34 -10 -60q0 -70 25 -105t66 -48t93 -11t106 6t106 3t93 -20t66 -63t25 -126q0 -36 -25 -84t-66 -100t-95 -102t-112 -90t-116 -65t-106 -25q-46 0 -61 32t-15 68q34 24 85 56t104 66t101 70t75 71t28 68t-41 59 q-70 0 -136 -3t-125 0t-107 19t-83 54t-55 104t-20 170q-2 46 0 76q-80 36 -143 113t-106 170t-66 189t-23 172z" />
<glyph unicode="&#xe8;" horiz-adv-x="1240" d="M44 618q0 120 29 240t93 216t165 156t245 60q82 0 144 -30t104 -79t64 -115t22 -138q0 -112 -53 -219t-141 -188t-201 -122t-231 -19q2 -64 43 -103t99 -59t121 -26t111 -6q50 0 95 9t89 20t90 20t96 9q20 0 41 -2t38 -10t28 -24t11 -42q0 -42 -31 -70t-78 -47t-105 -30 t-113 -16t-100 -6t-67 -1q-144 0 -257 45t-191 126t-119 196t-41 255zM280 762q0 -78 21 -113t103 -35q58 0 114 21t101 59t72 89t27 111q0 32 -6 68t-23 66t-45 49t-72 19q-68 0 -122 -30t-92 -78t-58 -107t-20 -119zM424 1682q8 44 28 57t46 4t56 -37t61 -64t59 -76 t52 -74q2 -4 10 -15t14 -17q24 -28 23 -58t-16 -50t-42 -23t-53 25z" />
<glyph unicode="&#xe9;" horiz-adv-x="1240" d="M44 618q0 120 29 240t93 216t165 156t245 60q82 0 144 -30t104 -79t64 -115t22 -138q0 -112 -53 -219t-141 -188t-201 -122t-231 -19q2 -64 43 -103t99 -59t121 -26t111 -6q50 0 95 9t89 20t90 20t96 9q20 0 41 -2t38 -10t28 -24t11 -42q0 -42 -31 -70t-78 -47t-105 -30 t-113 -16t-100 -6t-67 -1q-144 0 -257 45t-191 126t-119 196t-41 255zM280 762q0 -78 21 -113t103 -35q58 0 114 21t101 59t72 89t27 111q0 32 -6 68t-23 66t-45 49t-72 19q-68 0 -122 -30t-92 -78t-58 -107t-20 -119zM287 1393q-1 33 23 63q6 8 14 20t10 16q22 36 51 80 t60 83t62 69t57 40t45 -4t29 -64l-242 -356q-26 -30 -52 -26t-41 25t-16 54z" />
<glyph unicode="&#xea;" horiz-adv-x="1240" d="M44 618q0 120 29 240t93 216t165 156t245 60q82 0 144 -30t104 -79t64 -115t22 -138q0 -112 -53 -219t-141 -188t-201 -122t-231 -19q2 -64 43 -103t99 -59t121 -26t111 -6q50 0 95 9t89 20t90 20t96 9q20 0 41 -2t38 -10t28 -24t11 -42q0 -42 -31 -70t-78 -47t-105 -30 t-113 -16t-100 -6t-67 -1q-144 0 -257 45t-191 126t-119 196t-41 255zM182 1456q0 42 15 106t40 138t60 152t75 144t85 116t89 70q44 -24 91 -71t95 -106t94 -124t88 -125t78 -111t62 -79q-2 -4 -14 -17t-27 -28t-31 -30t-24 -21q-6 -2 -10 -2q-6 -2 -12 -2q-10 0 -16 2 q-6 0 -10 2q-66 44 -101 105t-66 115t-71 92t-114 38q-48 -114 -74 -185t-44 -111t-33 -56t-41 -19t-69 2t-115 5zM280 762q0 -78 21 -113t103 -35q58 0 114 21t101 59t72 89t27 111q0 32 -6 68t-23 66t-45 49t-72 19q-68 0 -122 -30t-92 -78t-58 -107t-20 -119z" />
<glyph unicode="&#xeb;" horiz-adv-x="1240" d="M44 618q0 120 29 240t93 216t165 156t245 60q82 0 144 -30t104 -79t64 -115t22 -138q0 -112 -53 -219t-141 -188t-201 -122t-231 -19q2 -64 43 -103t99 -59t121 -26t111 -6q50 0 95 9t89 20t90 20t96 9q20 0 41 -2t38 -10t28 -24t11 -42q0 -42 -31 -70t-78 -47t-105 -30 t-113 -16t-100 -6t-67 -1q-144 0 -257 45t-191 126t-119 196t-41 255zM202 1549q-2 33 24 65t94 48q100 0 100 -104q-26 -64 -62 -86t-70 -16t-59 33t-27 60zM280 762q0 -78 21 -113t103 -35q58 0 114 21t101 59t72 89t27 111q0 32 -6 68t-23 66t-45 49t-72 19 q-68 0 -122 -30t-92 -78t-58 -107t-20 -119zM706 1549q-2 33 24 65t94 48q100 0 100 -104q-26 -64 -62 -86t-70 -16t-59 33t-27 60z" />
<glyph unicode="&#xec;" horiz-adv-x="524" d="M68 1682q8 44 28 57t46 4t56 -37t61 -64t59 -76t52 -74q2 -4 10 -15t14 -17q24 -28 23 -58t-16 -50t-42 -23t-53 25zM138 834q0 12 1 42t2 64t2 65t1 43q24 36 63 58t79 36q8 -120 39 -255t66 -272t63 -270t28 -249q0 -100 -102 -100q-62 0 -104 51t-68 130t-41 176 t-21 190t-7 171t-1 120z" />
<glyph unicode="&#xed;" horiz-adv-x="524" d="M107 1341q-1 33 23 63q6 8 14 20t10 16q22 36 51 80t60 83t62 69t57 40t46 -4t28 -64l-242 -356q-26 -30 -52 -26t-41 25t-16 54zM138 834q0 -42 1 -120t7 -171t21 -190t41 -176t68 -130t104 -51q102 0 102 100q0 116 -28 249t-63 270t-66 272t-39 255q-40 -14 -79 -36 t-63 -58q0 -12 -1 -43t-2 -65t-2 -64t-1 -42z" />
<glyph unicode="&#xee;" horiz-adv-x="524" d="M-174 1456q0 42 15 106t40 138t60 152t75 144t85 116t89 70q44 -24 91 -71t95 -106t94 -124t88 -125t78 -111t62 -79q-2 -4 -14 -17t-27 -28t-31 -30t-24 -21q-6 -2 -10 -2q-6 -2 -12 -2q-8 0 -14 2q-6 0 -10 2q-66 44 -102 105t-66 115t-70 92t-116 38 q-48 -114 -74 -185t-44 -111t-33 -56t-41 -19t-69 2t-115 5zM138 834q0 12 1 42t2 64t2 65t1 43q24 36 63 58t79 36q8 -120 39 -255t66 -272t63 -270t28 -249q0 -100 -102 -100q-62 0 -104 51t-68 130t-41 176t-21 190t-7 171t-1 120z" />
<glyph unicode="&#xef;" horiz-adv-x="524" d="M-126 1559q-2 33 24 65t94 48q100 0 100 -104q-26 -64 -62 -86t-70 -16t-59 33t-27 60zM138 834q0 12 1 42t2 64t2 65t1 43q24 36 63 58t79 36q8 -120 39 -255t66 -272t63 -270t28 -249q0 -100 -102 -100q-62 0 -104 51t-68 130t-41 176t-21 190t-7 171t-1 120zM378 1559 q-2 33 24 65t94 48q100 0 100 -104q-26 -64 -62 -86t-70 -16t-59 33t-27 60z" />
<glyph unicode="&#xf0;" horiz-adv-x="1048" d="M104 602q0 138 66 222t210 84q48 0 93 -14t88 -30t86 -30t87 -14q0 6 2 17t4 24t4 25t0 18q-4 16 -19 77t-33 137q-120 6 -236 31t-192 81q0 56 16 67t56 11q46 10 130 8t186 -10q-18 70 -30 124l-16 72v46q4 8 22 26t24 22q4 0 10 2q4 0 8 1t6 1q36 0 67 -24t57 -66 t47 -100t37 -124q64 -6 118 -10t88 -4q0 -6 2 -26t2 -28q0 -46 -19 -78t-81 -28h-74q16 -106 26 -216t16 -205t8 -168t2 -105q0 -14 -1 -43t-1 -62t-1 -63t-1 -42q-30 -66 -59 -104t-62 -58t-73 -26t-92 -6q-108 0 -211 51t-185 133t-132 188t-50 216zM284 578 q0 -52 35 -117t87 -122t112 -96t112 -39q38 0 61 28t36 66t17 78t4 64q0 60 -25 105t-67 74t-95 43t-109 14h-62t-54 -8t-38 -29t-14 -61z" />
<glyph unicode="&#xf1;" horiz-adv-x="1286" d="M16 1328q0 74 13 155t49 149t99 112t163 44q72 0 124 -32t93 -80t77 -105t75 -105t87 -80t114 -32q74 0 109 23t46 59t8 81t-4 88t9 78t48 55h24h22q6 -2 20 -8t29 -13t29 -14t20 -11q0 -8 1 -25t1 -36t1 -36t1 -23q0 -194 -103 -304t-293 -110q-74 0 -127 29t-94 73 t-75 96t-69 96t-76 73t-97 29q-70 0 -101 -27t-42 -69t-11 -94t-6 -100t-27 -87t-73 -57l-50 46q-2 6 -4 27t-4 46l-4 50t-2 39zM44 748q0 58 29 84t93 26h24q6 -36 15 -83t26 -95t42 -90t61 -66q2 78 39 150t91 129t120 96t130 53h48q108 0 183 -48t125 -125t77 -175 t41 -199t17 -195t3 -162h-162q-12 134 -32 256q-8 50 -19 104t-24 102t-29 89t-36 69q-8 10 -23 26t-30 31t-28 26t-17 11q-66 18 -115 -25t-86 -117t-61 -167t-39 -178t-22 -149t-9 -78q-56 -38 -105 -22t-92 69t-78 133t-64 170t-52 182t-41 168z" />
<glyph unicode="&#xf2;" d="M44 452q0 138 65 256t170 204t237 135t268 49q76 0 135 -49t99 -119t61 -148t21 -136q0 -124 -60 -241t-156 -207t-216 -145t-240 -55q-106 0 -179 36t-118 98t-66 145t-21 177zM234 428q0 -56 10 -100t35 -75t67 -47t106 -16q82 0 164 45t147 115t106 154t41 164 q0 36 -7 78t-23 78t-45 61t-73 25q-40 0 -94 -27t-113 -69t-116 -96t-103 -107t-74 -102t-28 -81zM376 1682q8 44 28 57t46 4t56 -37t61 -64t59 -76t52 -74q2 -4 10 -15t14 -17q24 -28 23 -58t-16 -50t-42 -23t-53 25z" />
<glyph unicode="&#xf3;" d="M44 452q0 138 65 256t170 204t237 135t268 49q76 0 135 -49t99 -119t61 -148t21 -136q0 -124 -60 -241t-156 -207t-216 -145t-240 -55q-106 0 -179 36t-118 98t-66 145t-21 177zM234 428q0 -56 10 -100t35 -75t67 -47t106 -16q82 0 164 45t147 115t106 154t41 164 q0 36 -7 78t-23 78t-45 61t-73 25q-40 0 -94 -27t-113 -69t-116 -96t-103 -107t-74 -102t-28 -81zM417 1341q-1 33 23 63q6 8 14 20t10 16q22 36 51 80t60 83t62 69t57 40t45 -4t29 -64l-242 -356q-26 -30 -52 -26t-41 25t-16 54z" />
<glyph unicode="&#xf4;" d="M44 452q0 138 65 256t170 204t237 135t268 49q76 0 135 -49t99 -119t61 -148t21 -136q0 -124 -60 -241t-156 -207t-216 -145t-240 -55q-106 0 -179 36t-118 98t-66 145t-21 177zM136 1228q0 42 15 106t40 138t60 152t75 144t85 116t89 70q44 -24 91 -71t95 -106t94 -124 t88 -125t78 -111t62 -79q-2 -4 -14 -17t-27 -28t-31 -30t-24 -21q-6 -2 -10 -2q-6 -2 -12 -2q-10 0 -16 2q-6 0 -10 2q-66 44 -101 105t-66 115t-71 92t-114 38q-48 -114 -74 -185t-44 -111t-33 -56t-41 -19t-69 2t-115 5zM234 428q0 -56 10 -100t35 -75t67 -47t106 -16 q82 0 164 45t147 115t106 154t41 164q0 36 -7 78t-23 78t-45 61t-73 25q-40 0 -94 -27t-113 -69t-116 -96t-103 -107t-74 -102t-28 -81z" />
<glyph unicode="&#xf5;" d="M-76 1382q0 74 13 155t49 149t99 112t163 44q72 0 124 -32t93 -80t77 -105t75 -105t87 -80t114 -32q74 0 109 23t46 59t8 81t-4 88t9 78t48 55h24h22q6 -2 20 -8t29 -13t29 -14t20 -11q0 -8 1 -25t1 -36t1 -36t1 -23q0 -194 -103 -304t-293 -110q-74 0 -127 29t-94 73 t-75 96t-69 96t-76 73t-97 29q-70 0 -101 -27t-42 -69t-11 -94t-6 -100t-27 -87t-73 -57l-50 46q-2 6 -4 27t-4 46l-4 50t-2 39zM44 452q0 138 65 256t170 204t237 135t268 49q76 0 135 -49t99 -119t61 -148t21 -136q0 -124 -60 -241t-156 -207t-216 -145t-240 -55 q-106 0 -179 36t-118 98t-66 145t-21 177zM234 428q0 -56 10 -100t35 -75t67 -47t106 -16q82 0 164 45t147 115t106 154t41 164q0 36 -7 78t-23 78t-45 61t-73 25q-40 0 -94 -27t-113 -69t-116 -96t-103 -107t-74 -102t-28 -81z" />
<glyph unicode="&#xf6;" d="M44 452q0 138 65 256t170 204t237 135t268 49q76 0 135 -49t99 -119t61 -148t21 -136q0 -124 -60 -241t-156 -207t-216 -145t-240 -55q-106 0 -179 36t-118 98t-66 145t-21 177zM234 428q0 -56 10 -100t35 -75t67 -47t106 -16q82 0 164 45t147 115t106 154t41 164 q0 36 -7 78t-23 78t-45 61t-73 25q-40 0 -94 -27t-113 -69t-116 -96t-103 -107t-74 -102t-28 -81zM290 1363q-2 33 24 65t94 48q100 0 100 -104q-26 -64 -62 -86t-70 -16t-59 33t-27 60zM794 1363q-2 33 24 65t94 48q100 0 100 -104q-26 -64 -62 -86t-70 -16t-59 33t-27 60z " />
<glyph unicode="&#xf7;" horiz-adv-x="892" d="M54 666q0 8 2 26t2 22q56 0 143 7t180 12t178 6t137 -9q40 0 55 -9t15 -61q-66 -44 -147 -63t-163 -25t-161 -3t-141 1q-62 -4 -81 25t-19 71zM128 974q0 36 27 67t65 54t80 37t70 14q64 0 82 -38t18 -96q0 -42 -18 -73t-48 -51t-70 -29t-84 -9q-8 0 -12 2q-6 0 -10 2 q-8 2 -22 15t-29 28t-28 30t-17 21q-2 6 -2 12q-2 6 -2 14zM318 258q0 72 43 110t105 54t130 18t118 2q0 -62 -18 -117t-52 -97t-85 -67t-117 -25q-70 0 -97 26t-27 96z" />
<glyph unicode="&#xf8;" d="M44 452q0 138 65 256t170 204t237 135t268 49q76 0 135 -49t99 -119t61 -148t21 -136q0 -124 -60 -241t-156 -207t-216 -145t-240 -55q-106 0 -179 36t-118 98t-66 145t-21 177zM234 428q0 -56 10 -100t35 -75t67 -47t106 -16q82 0 164 45t147 115t106 154t41 164 q0 36 -7 78t-23 78t-45 61t-73 25q-40 0 -94 -27t-113 -69t-116 -96t-103 -107t-74 -102t-28 -81zM262 -94l14 56t20 85t19 84t13 55q16 62 47 172t76 236t104 253t131 224t157 148t183 25q-32 -124 -80 -235t-102 -216t-111 -208t-110 -210t-96 -223t-69 -246 q-10 -64 -41 -74t-71 0q-30 8 -54 21t-30 53z" />
<glyph unicode="&#xf9;" d="M44 906q0 14 1 48t1 72t1 71t1 45q16 28 37 53t45 35t51 3t57 -43v-18v-30q-2 -10 -9 -52t-16 -90t-16 -90t-7 -52q0 -42 8 -105t25 -132t43 -138t61 -124t79 -90t100 -35q72 0 126 37t94 97t66 136t42 153t22 148t6 123q0 54 -8 102t-19 95t-19 92t-8 93q0 42 31 59 t67 17q48 0 77 -27t45 -70t22 -97t6 -107t-2 -101t-2 -78q0 -74 -12 -170t-39 -197t-68 -199t-100 -174t-136 -123t-173 -47q-100 0 -175 48t-128 127t-88 178t-54 200t-27 195t-8 162zM364 1776q8 44 28 57t46 4t56 -37t61 -64t59 -76t52 -74q2 -4 10 -15t14 -17 q24 -28 23 -58t-16 -50t-42 -23t-53 25z" />
<glyph unicode="&#xfa;" d="M44 906q0 14 1 48t1 72t1 71t1 45q16 28 37 53t45 35t51 3t57 -43v-18v-30q-2 -10 -9 -52t-16 -90t-16 -90t-7 -52q0 -42 8 -105t25 -132t43 -138t61 -124t79 -90t100 -35q72 0 126 37t94 97t66 136t42 153t22 148t6 123q0 54 -8 102t-19 95t-19 92t-8 93q0 42 31 59 t67 17q48 0 77 -27t45 -70t22 -97t6 -107t-2 -101t-2 -78q0 -74 -12 -170t-39 -197t-68 -199t-100 -174t-136 -123t-173 -47q-100 0 -175 48t-128 127t-88 178t-54 200t-27 195t-8 162zM437 1517q-1 33 23 63q6 8 14 20t10 16q22 36 51 80t60 83t62 69t57 40t45 -4t29 -64 l-242 -356q-26 -30 -52 -26t-41 25t-16 54z" />
<glyph unicode="&#xfb;" d="M44 906q0 14 1 48t1 72t1 71t1 45q16 28 37 53t45 35t51 3t57 -43v-18v-30q-2 -10 -9 -52t-16 -90t-16 -90t-7 -52q0 -42 8 -105t25 -132t43 -138t61 -124t79 -90t100 -35q72 0 126 37t94 97t66 136t42 153t22 148t6 123q0 54 -8 102t-19 95t-19 92t-8 93q0 42 31 59 t67 17q48 0 77 -27t45 -70t22 -97t6 -107t-2 -101t-2 -78q0 -74 -12 -170t-39 -197t-68 -199t-100 -174t-136 -123t-173 -47q-100 0 -175 48t-128 127t-88 178t-54 200t-27 195t-8 162zM136 1456q0 42 15 106t40 138t60 152t75 144t85 116t89 70q44 -24 91 -71t95 -106 t94 -124t88 -125t78 -111t62 -79q-2 -4 -14 -17t-27 -28t-31 -30t-24 -21q-6 -2 -10 -2q-6 -2 -12 -2q-10 0 -16 2q-6 0 -10 2q-66 44 -101 105t-66 115t-71 92t-114 38q-48 -114 -74 -185t-44 -111t-33 -56t-41 -19t-69 2t-115 5z" />
<glyph unicode="&#xfc;" d="M44 906q0 14 1 48t1 72t1 71t1 45q16 28 37 53t45 35t51 3t57 -43v-18v-30q-2 -10 -9 -52t-16 -90t-16 -90t-7 -52q0 -42 8 -105t25 -132t43 -138t61 -124t79 -90t100 -35q72 0 126 37t94 97t66 136t42 153t22 148t6 123q0 54 -8 102t-19 95t-19 92t-8 93q0 42 31 59 t67 17q48 0 77 -27t45 -70t22 -97t6 -107t-2 -101t-2 -78q0 -74 -12 -170t-39 -197t-68 -199t-100 -174t-136 -123t-173 -47q-100 0 -175 48t-128 127t-88 178t-54 200t-27 195t-8 162zM290 1631q-2 33 24 65t94 48q100 0 100 -104q-26 -64 -62 -86t-70 -16t-59 33t-27 60z M794 1631q-2 33 24 65t94 48q100 0 100 -104q-26 -64 -62 -86t-70 -16t-59 33t-27 60z" />
<glyph unicode="&#xfd;" horiz-adv-x="1096" d="M6 1150q0 20 2 41t9 39t22 29t43 11q2 0 6 -1t8 -1q6 -2 10 -2q44 -56 75 -146t59 -192t62 -205t87 -185t131 -131t194 -43q50 0 66 56t17 143t-5 191t0 198t34 166t96 96q30 -58 48 -181t27 -285t9 -349t-9 -373t-26 -357t-40 -300t-52 -203t-63 -64q-48 44 -73 115 t-35 158t-8 184t8 195t13 191t7 171q-78 -8 -162 24t-164 97t-152 159t-126 211t-86 254t-32 289zM475 1465q-1 33 23 63q6 8 14 20t10 16q22 36 51 80t60 83t62 69t57 40t45 -4t29 -64l-242 -356q-26 -30 -52 -26t-41 25t-16 54z" />
<glyph unicode="&#xfe;" horiz-adv-x="1048" d="M38 1355q0 73 1 127t5 74q6 54 25 87t44 38t54 -22t55 -95q6 -14 4 -50t-7 -81t-9 -94t-3 -90t9 -67t30 -26q48 24 118 40t148 19t155 -12t141 -53t106 -102t48 -158q0 -122 -52 -227t-131 -197t-173 -171t-178 -151q-4 -8 -7 -36t-3 -36q0 -74 14 -102t31 -49t31 -57 t14 -126q0 -52 -24 -64t-92 -12q-58 24 -104 108t-81 199t-61 247t-45 253t-33 215t-24 136q0 28 -1 88t-2 135t-2 157t-1 155zM234 800q0 -34 4 -97t19 -125t44 -108t79 -46q70 0 139 47t124 118t89 152t34 149q0 54 -26 87t-67 51t-88 24t-89 6q-126 0 -194 -68t-68 -190z " />
<glyph unicode="&#xff;" horiz-adv-x="1096" d="M6 1150q0 20 2 41t9 39t22 29t43 11q2 0 6 -1t8 -1q6 -2 10 -2q44 -56 75 -146t59 -192t62 -205t87 -185t131 -131t194 -43q50 0 66 56t17 143t-5 191t0 198t34 166t96 96q30 -58 48 -181t27 -285t9 -349t-9 -373t-26 -357t-40 -300t-52 -203t-63 -64q-48 44 -73 115 t-35 158t-8 184t8 195t13 191t7 171q-78 -8 -162 24t-164 97t-152 159t-126 211t-86 254t-32 289zM268 1631q-2 33 24 65t94 48q100 0 100 -104q-26 -64 -62 -86t-70 -16t-59 33t-27 60zM772 1631q-2 33 24 65t94 48q100 0 100 -104q-26 -64 -62 -86t-70 -16t-59 33t-27 60z " />
<glyph unicode="&#x152;" horiz-adv-x="2422" d="M68 580q0 226 36 395t97 290t140 201t166 129t175 71t165 30t138 5t95 -5q-4 4 -8 7t-8 7v8v10q6 32 34 49t62 25t67 9t51 1q4 0 8 -2q8 -4 16 -4q2 0 6 -1t8 -1q6 -2 10 -2q52 -16 131 -41t167 -53t178 -56t164 -52t123 -40t59 -18q18 -4 44 -16t51 -29t46 -39t27 -46 q-24 -32 -42 -48t-33 -22t-33 -4t-42 6q-92 18 -182 43t-181 51l-182 52t-185 44q-8 -42 -33 -117t-47 -162t-30 -175t20 -154q42 14 84 17t84 -1t84 -13t84 -17l95 -20t107 -35t81 -62t19 -99q-10 -44 -31 -63t-85 -7q-6 2 -24 13t-40 25t-41 25t-25 11l-118 30 q-50 10 -98 12t-87 -11t-66 -46t-39 -93l-12 -60t-15 -88t-9 -99t6 -94t27 -74t57 -37q6 -2 25 -3t23 -1q80 34 172 62t188 43t195 16t193 -17l-50 -126q-2 -10 -52 -31t-129 -45t-175 -50t-191 -44t-179 -26t-136 2q-48 10 -82 45t-60 87q-58 -28 -132 -46t-153 -29 t-156 -16t-141 -5q-124 0 -213 56t-148 146t-87 201t-28 221zM258 528q0 -60 19 -126t55 -121t89 -92t123 -37q56 0 126 7t141 22t139 37t124 54q-12 112 -10 246t14 271t30 270t35 246t31 197t20 124l-60 -120q-94 0 -195 -31t-198 -91t-185 -145t-154 -194t-105 -239 t-39 -278z" />
<glyph unicode="&#x153;" horiz-adv-x="2110" d="M44 452q0 138 65 256t170 204t237 135t268 49q70 0 125 -42t95 -104q30 68 72 127t99 102t130 67t163 24q82 0 145 -30t105 -79t63 -115t21 -138q0 -112 -53 -219t-141 -188t-200 -122t-230 -19q2 -64 43 -103t99 -59t121 -26t109 -6q50 0 96 9t90 20t90 20t96 9 q20 0 41 -2t38 -10t28 -24t11 -42q0 -42 -31 -70t-79 -47t-106 -30t-113 -16t-100 -6t-67 -1q-208 0 -350 89t-206 249q-50 -70 -114 -128t-138 -100t-152 -66t-156 -24q-106 0 -179 36t-118 98t-66 145t-21 177zM234 428q0 -56 10 -100t35 -75t67 -47t106 -16q82 0 164 45 t147 115t106 154t41 164q0 36 -7 78t-23 78t-45 61t-73 25q-40 0 -94 -27t-113 -69t-116 -96t-103 -107t-74 -102t-28 -81zM1174 742q0 -40 4 -68t17 -46t37 -26t64 -8q58 0 114 21t101 58t73 89t28 112q0 32 -6 68t-23 66t-46 49t-73 19q-68 0 -122 -30t-91 -78t-57 -107 t-20 -119z" />
<glyph unicode="&#x178;" horiz-adv-x="1430" d="M44 2292q0 10 1 26t5 30t15 24t29 10q54 0 95 -39t74 -103t62 -146t59 -167t63 -167t74 -146t94 -103t123 -39q4 0 12 2t12 2q62 56 112 148t93 199t83 220t83 211t91 171t110 101l94 -98q18 -16 6 -71t-42 -136t-74 -180t-93 -205l-98 -212t-88 -199t-63 -167t-24 -116 q0 -132 38 -257t83 -248t83 -247t38 -252v-46t-8 -52t-29 -37t-61 -3q-82 120 -145 272t-107 317t-65 333t-17 318q-86 18 -173 80t-166 151t-149 198t-121 220t-80 216t-29 187zM338 2617q-2 33 24 65t94 48q100 0 100 -104q-26 -64 -62 -86t-70 -16t-59 33t-27 60z M842 2617q-2 33 24 65t94 48q100 0 100 -104q-26 -64 -62 -86t-70 -16t-59 33t-27 60z" />
<glyph unicode="&#x2c6;" horiz-adv-x="952" d="M60 1456q0 42 15 106t40 138t60 152t75 144t85 116t89 70q44 -24 91 -71t95 -106t94 -124t88 -125t78 -111t62 -79q-2 -4 -14 -17t-27 -28t-31 -30t-24 -21q-6 -2 -10 -2q-6 -2 -12 -2q-10 0 -16 2q-6 0 -10 2q-66 44 -101 105t-66 115t-71 92t-114 38q-48 -114 -74 -185 t-44 -111t-33 -56t-41 -19t-69 2t-115 5z" />
<glyph unicode="&#x2dc;" horiz-adv-x="1380" d="M76 1142q0 74 13 155t49 149t99 112t163 44q72 0 124 -32t93 -80t77 -105t75 -105t87 -80t114 -32q74 0 109 23t46 59t8 81t-4 88t9 78t48 55h24h22q6 -2 20 -8t29 -13t29 -14t20 -11q0 -8 1 -25t1 -36t1 -36t1 -23q0 -194 -103 -304t-293 -110q-74 0 -127 29t-94 73 t-75 96t-69 96t-76 73t-97 29q-70 0 -101 -27t-42 -69t-11 -94t-6 -100t-27 -87t-73 -57l-50 46q-2 6 -4 27t-4 46l-4 50t-2 39z" />
<glyph unicode="&#x2000;" horiz-adv-x="1416" />
<glyph unicode="&#x2001;" horiz-adv-x="2832" />
<glyph unicode="&#x2002;" horiz-adv-x="1416" />
<glyph unicode="&#x2003;" horiz-adv-x="2832" />
<glyph unicode="&#x2004;" horiz-adv-x="944" />
<glyph unicode="&#x2005;" horiz-adv-x="708" />
<glyph unicode="&#x2006;" horiz-adv-x="472" />
<glyph unicode="&#x2007;" horiz-adv-x="472" />
<glyph unicode="&#x2008;" horiz-adv-x="354" />
<glyph unicode="&#x2009;" horiz-adv-x="566" />
<glyph unicode="&#x200a;" horiz-adv-x="157" />
<glyph unicode="&#x2010;" d="M170 722q0 8 2 26t2 22q36 0 97 5t134 11t152 12t150 9t131 2t94 -7q40 0 56 -9t16 -59q-66 -46 -166 -67t-205 -30t-203 -9t-160 -2q-62 -4 -81 25t-19 71z" />
<glyph unicode="&#x2011;" d="M170 722q0 8 2 26t2 22q36 0 97 5t134 11t152 12t150 9t131 2t94 -7q40 0 56 -9t16 -59q-66 -46 -166 -67t-205 -30t-203 -9t-160 -2q-62 -4 -81 25t-19 71z" />
<glyph unicode="&#x2012;" d="M170 722q0 8 2 26t2 22q36 0 97 5t134 11t152 12t150 9t131 2t94 -7q40 0 56 -9t16 -59q-66 -46 -166 -67t-205 -30t-203 -9t-160 -2q-62 -4 -81 25t-19 71z" />
<glyph unicode="&#x2013;" horiz-adv-x="934" d="M170 722q0 8 2 26t2 22q56 0 143 7t180 12t178 6t137 -9q40 0 55 -9t15 -61q-66 -44 -147 -63t-163 -25t-161 -3t-141 1q-62 -4 -81 25t-19 71z" />
<glyph unicode="&#x2014;" horiz-adv-x="1376" d="M170 722q0 8 2 26t2 22q36 0 120 2t189 4t222 4t222 2t186 -3t115 -9q40 0 56 -10t16 -60q-44 -30 -126 -46t-182 -24t-210 -9t-210 0t-180 3t-122 2q-62 -4 -81 25t-19 71z" />
<glyph unicode="&#x2018;" horiz-adv-x="334" d="M48 1476q0 6 5 19t13 29t15 29t13 19q4 0 10 2q4 0 8 1t6 1q42 0 74 -29t54 -71t33 -88t11 -78q0 -24 -7 -62t-22 -72t-38 -59t-57 -25q-36 0 -58 50t-36 115t-19 128t-5 91z" />
<glyph unicode="&#x2019;" horiz-adv-x="334" d="M48 1476q0 6 5 19t13 29t15 29t13 19q4 0 10 2q4 0 8 1t6 1q42 0 74 -29t54 -71t33 -88t11 -78q0 -24 -7 -62t-22 -72t-38 -59t-57 -25q-36 0 -58 50t-36 115t-19 128t-5 91z" />
<glyph unicode="&#x201a;" horiz-adv-x="334" d="M52 346q0 6 5 19t13 29t15 29t13 19q4 0 10 2q4 0 8 1t6 1q42 0 74 -29t54 -71t33 -88t11 -78q0 -26 -7 -63t-22 -72t-38 -59t-57 -24q-36 0 -58 50t-36 115t-19 128t-5 91z" />
<glyph unicode="&#x201c;" horiz-adv-x="808" d="M41 1430q-1 64 1 116t2 74q0 16 1 57t1 86t1 86t1 57q4 6 22 25t24 23q4 0 10 2q4 0 8 1t6 1t6 -1t8 -1q6 -2 12 -2q2 -2 9 -8t15 -14t14 -16t8 -10q-10 -108 13 -204t54 -181t58 -161t27 -146q0 -26 -7 -56t-23 -55t-40 -42t-60 -17q-52 0 -86 36t-52 93t-25 125t-8 132 zM428 1768q0 26 9 51t24 45t37 33t48 13q30 0 54 -49t44 -124t33 -162t23 -162t14 -126t4 -53q0 -96 -104 -96q-38 0 -67 41t-50 104t-34 140t-21 147t-11 124t-3 74z" />
<glyph unicode="&#x201d;" horiz-adv-x="858" d="M-4 1192q0 54 24 98t52 89t52 94t24 109q0 52 -5 90t-20 73t-45 72t-78 87q14 40 41 47t55 7q50 0 94 -40t77 -97t52 -119t19 -106q0 -52 -19 -136t-55 -165t-90 -140t-126 -59q-20 0 -30 11t-15 26t-6 32t-1 27zM410 2030q88 0 154 -36t111 -95t68 -136t23 -161 q0 -52 -8 -130t-32 -151t-67 -126t-113 -53q-40 0 -57 30t-17 60q0 52 16 100t34 94t34 94t16 100q0 60 -25 108t-56 94t-56 95t-25 113z" />
<glyph unicode="&#x201e;" horiz-adv-x="808" d="M111 277q-1 63 1 115t2 74q0 16 1 57t1 87t1 87t1 57q4 6 23 24t25 22q4 0 10 2q4 0 8 1t6 1t6 -1t8 -1q6 -2 12 -2q6 -4 24 -22t22 -24q-10 -110 13 -205t54 -180t58 -161t27 -146q0 -26 -7 -56t-23 -55t-41 -42t-59 -17q-52 0 -86 36t-53 93t-26 125t-8 131zM500 614 q0 26 8 51t24 46t37 34t49 13q30 0 54 -50t44 -124t33 -161t23 -162t14 -126t4 -53q0 -52 -27 -74t-77 -22q-38 0 -67 41t-50 104t-34 139t-21 146t-11 124t-3 74z" />
<glyph unicode="&#x2022;" horiz-adv-x="712" d="M158 595v9q0 48 33 91t79 75t96 50t84 18q40 0 64 -14t38 -38t18 -57t4 -71q0 -60 -22 -102t-59 -69t-85 -39t-100 -12h-7t-9 2l-12 4q-10 4 -28 21t-36 37t-33 40t-21 30q-2 6 -2 14q-2 6 -2 11z" />
<glyph unicode="&#x2026;" horiz-adv-x="1512" d="M191 67q-3 33 24 65t95 48q100 0 100 -104q-26 -64 -63 -86t-70 -16t-58 33t-28 60zM694 67q-2 33 25 65t95 48q100 0 100 -104q-26 -64 -63 -86t-71 -16t-59 33t-27 60zM1198 67q-2 33 24 65t94 48q102 0 102 -104q-26 -64 -63 -86t-71 -16t-59 33t-27 60z" />
<glyph unicode="&#x202f;" horiz-adv-x="566" />
<glyph unicode="&#x2039;" horiz-adv-x="952" d="M44 572q0 72 45 146t118 144t166 131t190 107t189 73t162 27q0 -64 -33 -117t-86 -100t-118 -90t-129 -86t-121 -89t-93 -100q-2 -6 -4 -10q-2 -6 -2 -12q0 -8 2 -14t4 -10q4 -4 21 -23t25 -25q12 -8 53 -33t95 -60t115 -73t115 -73t94 -61t54 -34q6 -4 24 -22t22 -24 q0 -6 2 -12q0 -4 1 -8t1 -6t-1 -5t-1 -7q-2 -6 -2 -10q-6 -10 -21 -27t-30 -32t-28 -26t-17 -11q-36 0 -110 28t-164 75t-185 107t-174 124t-129 126t-50 112z" />
<glyph unicode="&#x203a;" horiz-adv-x="1000" d="M36 1300q60 0 156 -19t203 -51t216 -77t196 -97t142 -109t55 -113q0 -4 -2 -12t-2 -14l-60 -72t-91 -110t-108 -129t-109 -128t-94 -109t-62 -70q-34 -38 -54 -65t-37 -45t-38 -27t-57 -9q-10 0 -27 1t-33 6t-28 15t-12 30q0 36 31 93t79 123t105 136t110 133t94 111 t57 70q0 4 3 12t3 12l-4 12q-2 4 -2 10q-4 10 -22 28t-26 22q-14 8 -54 33t-93 60t-114 73t-115 73t-94 60t-54 33q-34 22 -46 46t-12 64z" />
<glyph unicode="&#x205f;" horiz-adv-x="708" />
<glyph unicode="&#x20ac;" horiz-adv-x="1576" d="M104 860l42 30h34h40t54 2q-2 128 47 253t145 221t234 153t314 49q128 6 209 -19t121 -61t38 -74t-40 -57t-111 -9t-177 68q-126 16 -230 -28t-181 -121t-123 -176t-56 -193q104 2 210 4t184 6h24q38 0 50 -20t12 -42q0 -36 -17 -56t-69 -38q-16 0 -53 -1t-80 -1t-81 -1 t-52 -1q-22 0 -51 -1t-61 -1l4 -8q0 -30 2 -58t6 -56q60 2 119 0t108 -5t84 -5t47 0q56 2 71 -16t15 -46q0 -34 -26 -53t-65 -28t-82 -11t-77 -4q-20 -2 -58 -2h-86q60 -122 174 -195t278 -73q78 0 133 12t103 27t97 27t113 12q10 0 26 -1t31 -6t26 -15t11 -30 q0 -54 -29 -90t-76 -60t-107 -36t-120 -18t-115 -7t-93 -1q-258 0 -425 120t-233 336q-70 2 -127 2h-85q0 62 51 97t129 51q-12 72 -12 152q-64 10 -113 33t-75 69z" />
<glyph unicode="&#x2122;" horiz-adv-x="3468" d="M44 1476q0 30 6 55t44 39q208 -6 412 1t407 19t406 23t409 11q0 -38 -10 -72q70 -10 131 -55t118 -110t109 -142t102 -153t99 -142t101 -106q56 24 87 90t51 151t36 178t45 170t77 127t132 50q100 0 182 -78t146 -198t110 -266t77 -282t46 -245t15 -155q0 -20 -2 -43 t-11 -42t-30 -29t-59 0q-8 2 -23 13t-30 26t-27 30t-14 25q-20 108 -43 242t-61 271t-93 265t-137 222q-64 -38 -101 -109t-61 -156t-45 -174t-53 -162t-83 -119t-137 -46q-60 0 -117 39t-110 102t-103 140t-98 151t-94 138t-92 102q-18 -68 -28 -120t-16 -101t-7 -100 t-1 -113q0 -94 16 -186t34 -183t34 -184t16 -185v-18q-4 -8 -17 -22t-28 -29t-30 -28t-21 -17q-4 -2 -10 -2q-6 -2 -14 -2q-4 0 -12 2t-12 2q-14 130 -32 245t-33 228t-25 229t-10 250q0 26 1 87t1 129t1 128t1 84q4 12 9 35t15 47q-60 -12 -131 -10t-136 -3t-115 -25 t-66 -76q-2 -14 -4 -52t-3 -80t-2 -79t-1 -51q0 -128 32 -251t71 -244t71 -242t32 -245q0 -94 -106 -94q-66 0 -116 89t-86 226t-60 300t-38 312t-20 262t-6 149q-8 30 -34 41t-56 12t-59 -3t-43 -4q-38 2 -132 9t-201 15t-201 15t-132 11q0 4 -2 21t-2 25z" />
<glyph unicode="&#x25fc;" horiz-adv-x="1200" d="M0 0v1200h1200v-1200h-1200z" />
<glyph unicode="&#xfb01;" horiz-adv-x="1796" d="M52 1032h372q12 124 39 246t72 233t110 207t156 165t209 109t270 40q54 0 107 -26t95 -68t68 -95t26 -107q-42 0 -76 17t-65 38t-66 39t-79 18q-134 0 -249 -53t-200 -142t-134 -207t-49 -248q0 -8 1 -32t1 -51t1 -51t1 -32q82 -28 184 -41t206 -16t201 1t171 10 q8 -6 25 -24t21 -26q0 -6 2 -10l4 -12q0 -48 -49 -74t-125 -39t-168 -17t-177 -7t-153 -9t-96 -22q30 -132 104 -257t152 -249t138 -251t60 -261q-8 0 -40 -1t-68 4t-68 19t-38 44q-46 86 -102 216t-117 271t-126 277t-131 236q-28 20 -74 24t-97 3t-101 2t-87 23t-55 63 t-6 123zM1266 1406q0 60 23 104t87 44q42 -18 71 -58t25 -72t-50 -44t-156 26zM1344 722q0 12 1 42t2 64t2 65t1 43q24 36 63 58t79 36q8 -120 39 -255t66 -272t63 -270t28 -249q0 -100 -102 -100q-62 0 -104 51t-68 130t-41 176t-21 190t-7 171t-1 120z" />
<glyph unicode="&#xfb02;" horiz-adv-x="1922" d="M52 1032h372q12 124 39 246t72 233t110 207t156 165t209 109t270 40q54 0 107 -26t95 -68t68 -95t26 -107q-42 0 -76 17t-65 38t-66 39t-79 18q-134 0 -249 -53t-200 -142t-134 -207t-49 -248q0 -8 1 -32t1 -51t1 -51t1 -32q82 -28 184 -41t206 -16t201 1t171 10 q8 -6 25 -24t21 -26q0 -6 2 -10l4 -12q0 -48 -49 -74t-125 -39t-168 -17t-177 -7t-153 -9t-96 -22q30 -132 104 -257t152 -249t138 -251t60 -261q-8 0 -40 -1t-68 4t-68 19t-38 44q-46 86 -102 216t-117 271t-126 277t-131 236q-28 20 -74 24t-97 3t-101 2t-87 23t-55 63 t-6 123zM1451 1454q5 48 35 77t110 29q24 -52 47 -156t45 -240t42 -294t37 -319t29 -315t18 -280q-72 -50 -117 -7t-73 144t-44 246t-31 302t-34 309t-51 270q0 64 -9 125t-4 109z" />
</font>
</defs>
</svg>
